<?xml version="1.0" encoding="UTF-8" standalone="no"?>
<svg
   xmlns:dc="http://purl.org/dc/elements/1.1/"
   xmlns:cc="http://creativecommons.org/ns#"
   xmlns:rdf="http://www.w3.org/1999/02/22-rdf-syntax-ns#"
   xmlns:svg="http://www.w3.org/2000/svg"
   xmlns="http://www.w3.org/2000/svg"
   viewBox="0 0 3653.3333 2666.6667"
   height="2666.6667"
   width="3653.3333"
   xml:space="preserve"
   id="svg2"
   version="1.1"><metadata
     id="metadata8"><rdf:RDF><cc:Work
         rdf:about=""><dc:format>image/svg+xml</dc:format><dc:type
           rdf:resource="http://purl.org/dc/dcmitype/StillImage" /></cc:Work></rdf:RDF></metadata><defs
     id="defs6" /><g
     transform="matrix(1.3333333,0,0,-1.3333333,0,2666.6667)"
     id="g10"><g
       transform="scale(0.1)"
       id="g12"><g
         transform="scale(1.68098)"
         id="g14"><path
           id="path16"
           style="fill:transparent;fill-opacity:1;fill-rule:nonzero;stroke:none"
           d="M 16300,0 H 0 V 11897.8 H 16300 V 0" /></g><g
         transform="scale(1.63287)"
         id="g18"><path
           id="path20"
           style="fill:#feefdc;fill-opacity:1;fill-rule:nonzero;stroke:none"
           d="m 821.997,2324.01 c 396.553,839.69 322.203,797.74 136.312,1556.04 -185.882,758.3 -520.474,2765.88 421.341,4414.05 941.82,1648.17 2143.87,1858.8 2726.31,1660.56 582.43,-198.28 1053.34,-520.48 2057.13,-24.78 1003.76,495.72 3482.23,1958.02 5316.31,1102.92 1834,-855.1 1073.9,-2283.9 1718.3,-2891.12 C 13842,7534.46 15358.2,7377.07 15829,5902.39 16300,4427.68 15519.3,1187.48 13747.2,992.121 L 1379.65,908.282 c 0,0 -954.207,576.038 -557.653,1415.728" /></g><g
         transform="scale(1.47796)"
         id="g22"><path
           id="path24"
           style="fill:#ffffff;fill-opacity:1;fill-rule:nonzero;stroke:none"
           d="m 14924.8,6877.26 c 196.3,0.17 656.2,-6.15 1053.2,-62.28 164.2,-23.22 314.1,100.55 319.7,266.31 2.3,67.85 -17.5,148.04 -75.4,240.91 -222.8,357.57 -662.2,52.87 -668,-121.94 0,0 -70.3,267.67 -331.3,236.23 -261.1,-31.44 -191.2,-418.9 -191.2,-418.9 0,0 -82.4,22.33 -142.5,-13.88 -59,-35.61 -33.5,-126.52 35.5,-126.45" /></g><g
         transform="scale(1.61782)"
         id="g26"><path
           id="path28"
           style="fill:#258d8c;fill-opacity:1;fill-rule:nonzero;stroke:none"
           d="m 13468.5,985.404 c 53.1,52.296 466.6,784.456 753,407.956 0,0 467.9,1061.62 1060.5,853.74 0,0 377.8,-215.72 103.3,-753.11 0,0 914.7,57.55 902.8,-508.586 h -2819.6" /></g><g
         transform="scale(1.4988)"
         id="g30"><path
           id="path32"
           style="fill:#000000;fill-opacity:1;fill-rule:nonzero;stroke:none"
           d="m 16065.7,2292.11 c -1.5,0 -3,0.66 -4,1.93 -1.6,2.13 -1.3,5.2 0.9,6.94 5,3.87 123.3,94.88 231.5,107.69 2.8,0.33 5.3,-1.61 5.6,-4.34 0.3,-2.74 -1.6,-5.21 -4.4,-5.47 -105.3,-12.48 -225.3,-104.75 -226.5,-105.69 -0.9,-0.73 -2,-1.06 -3.1,-1.06" /></g><g
         transform="scale(1.49466)"
         id="g34"><path
           id="path36"
           style="fill:#000000;fill-opacity:1;fill-rule:nonzero;stroke:none"
           d="m 16110.2,2240.92 c -1.4,0 -2.9,0.6 -3.9,1.8 -1.7,2.14 -1.4,5.29 0.7,7.03 0.8,0.6 82.2,65.03 186,94.94 2.6,0.73 5.4,-0.81 6.2,-3.42 0.8,-2.61 -0.7,-5.35 -3.4,-6.15 -101.8,-29.24 -181.6,-92.46 -182.4,-93.13 -0.9,-0.74 -2.1,-1.07 -3.2,-1.07" /></g><g
         transform="scale(1.59853)"
         id="g38"><path
           id="path40"
           style="fill:#258d8c;fill-opacity:1;fill-rule:nonzero;stroke:none"
           d="m 15912.2,2496.36 c -106.9,-127.18 -137.6,-276.13 -68.4,-332.62 69,-56.49 211.7,0.88 318.6,128.06 106.9,127.24 137.6,276.13 68.5,332.61 -69.1,56.49 -211.8,-0.81 -318.7,-128.05" /></g><g
         transform="scale(1.59901)"
         id="g42"><path
           id="path44"
           style="fill:#258d8c;fill-opacity:1;fill-rule:nonzero;stroke:none"
           d="m 16070.5,1995.18 c -63.2,-75.3 -81.4,-163.42 -40.5,-196.88 40.9,-33.39 125.3,0.51 188.6,75.8 63.3,75.3 81.4,163.42 40.5,196.87 -40.8,33.4 -125.3,-0.5 -188.6,-75.79" /></g><path
         id="path46"
         style="fill:#ffffff;fill-opacity:1;fill-rule:nonzero;stroke:none"
         d="m 10304.9,13643.7 c 616.3,48.9 2119.9,146.4 3027.8,20.7 131.2,-18.2 216.5,136.3 129.6,236.3 -62.7,72 -173.5,131.9 -367.3,138.7 0,0 170.8,843 -643.6,914.2 -837,73.2 -839.7,-811.7 -839.7,-811.7 0,0 -493.5,459.2 -724.8,-117.5 0,0 -518.6,220.9 -750,-62 -109,-133.2 -3.5,-332.3 168,-318.7" /><path
         id="path48"
         style="fill:#49263e;fill-opacity:1;fill-rule:nonzero;stroke:none"
         d="m 13795.5,1735.7 h -2096.9 l 1.3,4393.1 h 2096.9 l -1.3,-4393.1" /><g
         transform="scale(1.16948)"
         id="g50"><path
           id="path52"
           style="fill:#49263e;fill-opacity:1;fill-rule:nonzero;stroke:none"
           d="m 16300,3875.3 v 5145.78 c 0,244.5 -198.2,442.7 -442.7,442.7 H 5880.07 c -244.5,0 -442.7,-198.2 -442.7,-442.7 V 3875.3 H 16300" /></g><g
         transform="scale(1.16948)"
         id="g54"><path
           id="path56"
           style="fill:#3a1f33;fill-opacity:1;fill-rule:nonzero;stroke:none"
           d="m 5437.37,3875.3 v -824.64 c 0,-171.53 113.37,-310.56 253.22,-310.56 H 16046.8 c 139.8,0 253.2,139.03 253.2,310.56 V 3875.3 H 5437.37" /></g><g
         transform="scale(1.15124)"
         id="g58"><path
           id="path60"
           style="fill:#e8f2fc;fill-opacity:1;fill-rule:nonzero;stroke:none"
           d="M 16300,4163.69 V 9150.1 c 0,130.7 -109.7,236.66 -245.1,236.66 H 6027.05 c -135.42,0 -245.2,-105.96 -245.2,-236.66 V 4163.69 H 16300" /></g><path
         id="path62"
         style="fill:#3a1f33;fill-opacity:1;fill-rule:nonzero;stroke:none"
         d="m 15584.1,1610.4 c 35.5,207.6 -103.9,375.9 -311.5,375.9 h -5046.2 c -207.6,0 -404.8,-168.3 -440.39,-375.9 h 5798.09" /><g
         transform="scale(1.15132)"
         id="g64"><path
           id="path66"
           style="fill:#21111d;fill-opacity:1;fill-rule:nonzero;stroke:none"
           d="M 16300,2770.21 H 5780.38 c -149.1,0 -270.4,147.4 -270.4,328.58 v 6064.62 c 0,255.23 207.64,462.87 462.86,462.87 v -26.36 c -240.67,0 -436.49,-195.82 -436.49,-436.51 V 3098.79 c 0,-166.67 109.48,-302.26 244.03,-302.26 H 16300 v -26.32" /></g><g
         transform="scale(1.13765)"
         id="g68"><path
           id="path70"
           style="fill:#21111d;fill-opacity:1;fill-rule:nonzero;stroke:none"
           d="m 16045.9,3392.52 -21.7,15.56 254.2,353.8 21.6,-15.56 -254.1,-353.8" /></g><g
         transform="scale(1.13764)"
         id="g72"><path
           id="path74"
           style="fill:#21111d;fill-opacity:1;fill-rule:nonzero;stroke:none"
           d="m 16045.8,3225.09 -21.5,15.82 254.3,344.22 21.4,-15.82 -254.2,-344.22" /></g><path
         id="path76"
         style="fill:#21111d;fill-opacity:1;fill-rule:nonzero;stroke:none"
         d="m 12216.4,2851.1 -26.4,15.1 143.9,251.7 26.3,-15 -143.8,-251.8" /><path
         id="path78"
         style="fill:#21111d;fill-opacity:1;fill-rule:nonzero;stroke:none"
         d="m 12240.4,2706.4 -26.2,15.4 130.1,221.7 26.2,-15.4 -130.1,-221.7" /><path
         id="path80"
         style="fill:#fe9f73;fill-opacity:1;fill-rule:nonzero;stroke:none"
         d="m 12301.9,11104.4 c 0,0 97.2,363 185.9,401 88.7,38.1 187.7,-25.6 187.7,-25.6 0,0 95,129.6 159.6,117.2 64.7,-12.3 80.5,-70.2 80.5,-70.2 0,0 114.3,-12.1 125.9,-106.1 0,0 89.9,-21.8 88.8,-95.6 0,0 46.4,-21.1 43.4,-110.5 0,0 -154.4,-301.8 -381.2,-408.7 -226.8,-106.9 -490.6,298.5 -490.6,298.5" /><path
         id="path82"
         style="fill:#3aa1c9;fill-opacity:1;fill-rule:nonzero;stroke:none"
         d="m 10244.5,4793.4 27,2569.1 -57.8,330 -1401.84,-503.1 c 0,0 43.17,-1086 134.11,-2396 h 1298.53" /><path
         id="path84"
         style="fill:#4cb7d8;fill-opacity:1;fill-rule:nonzero;stroke:none"
         d="m 9168.06,4793.4 157.54,1812.2 266.42,1322.7 -1812.28,-771.1 c 0,0 -12.96,-1067 9.07,-2363.8 h 1379.25" /><path
         id="path86"
         style="fill:#683d46;fill-opacity:1;fill-rule:nonzero;stroke:none"
         d="m 11913.5,12928.7 1474.3,-2456.1 -122.7,-93.3 -1167.5,2164.5 -184.1,384.9" /><path
         id="path88"
         style="fill:#fe9f73;fill-opacity:1;fill-rule:nonzero;stroke:none"
         d="m 12664.7,11487.6 c 0,0 65.2,67.3 104.3,87.4 39.2,20.1 272.5,-409.1 272.5,-409.1 l 33.8,-106 c 0,0 -29.9,-56.1 -49.2,-53.8 -19.3,2.3 -77.8,46.9 -77.8,46.9 l -15.2,58.6 -23.5,6.5 -30.7,28.4 -15.3,46.4 -32.6,-14.7 -46.5,18.4 -21.4,43.3 -9.2,4.2 -138.4,222.4 49.2,21.1" /><path
         id="path90"
         style="fill:#f07162;fill-opacity:1;fill-rule:nonzero;stroke:none"
         d="m 12749.7,11236.1 c -20.6,0 -44.3,14.2 -68.9,29 -17.2,10.3 -35,21 -53.4,28.2 -54.4,21.5 -79.3,12.1 -79.5,12 -3.9,-1.5 -8.3,0.3 -9.9,4.2 -1.6,3.8 0.2,8.2 4,9.8 1.2,0.5 29.8,12.2 91,-11.9 19.5,-7.7 37.8,-18.7 55.6,-29.3 38.5,-23.1 63,-36.3 79.4,-18.2 14.6,16.2 21,35.3 19,56.9 -4.2,46 -47.6,104.6 -116.1,157 -84.2,64.4 -158.3,32.6 -161.4,31.2 -3.8,-1.7 -8.4,0 -10.1,3.8 -1.7,3.8 0,8.3 3.8,10 3.5,1.6 85.2,37.1 176.9,-33 72.9,-55.6 117.3,-116.8 122,-167.6 2.4,-26 -5.3,-49 -22.8,-68.5 -8.8,-9.7 -18.8,-13.6 -29.6,-13.6" /><path
         id="path92"
         style="fill:#f07162;fill-opacity:1;fill-rule:nonzero;stroke:none"
         d="m 12775.4,11365.2 c -1.8,0 -3.6,0.7 -5.1,2 -3.1,2.8 -3.3,7.6 -0.5,10.7 l 140.1,154 c 2.9,3.1 7.6,3.3 10.8,0.5 3.1,-2.8 3.3,-7.6 0.5,-10.7 l -140.2,-154 c -1.5,-1.7 -3.5,-2.5 -5.6,-2.5" /><path
         id="path94"
         style="fill:#f07162;fill-opacity:1;fill-rule:nonzero;stroke:none"
         d="m 12928.8,11105.6 c -11.1,0 -21.3,3.6 -30.1,10.7 -15.4,8.6 -44,36.9 -35,77.8 0.9,4.1 4.9,6.6 9.1,5.8 4.1,-1 6.7,-5 5.8,-9.1 -8.9,-40 27,-61.1 28.5,-62 9.2,-7.2 18.6,-9.4 29.8,-7.2 75.2,14.3 185.7,205.3 186.8,207.3 2.1,3.6 6.8,4.8 10.4,2.7 3.6,-2 4.9,-6.7 2.8,-10.3 -4.7,-8.1 -115.2,-199 -197.2,-214.6 -3.7,-0.7 -7.3,-1.1 -10.9,-1.1" /><path
         id="path96"
         style="fill:#f07162;fill-opacity:1;fill-rule:nonzero;stroke:none"
         d="m 12827.1,11172.4 c -16.7,0 -31.1,4.8 -42.9,14.2 -26.2,21.1 -29.6,57.6 -29.7,59.1 -0.3,4.2 2.8,7.9 6.9,8.2 4,0.5 7.9,-2.7 8.2,-6.9 0.1,-0.3 3.1,-31.7 24.2,-48.6 11.4,-9.1 26.4,-12.5 44.6,-10 55.2,7.6 160.6,173 196.5,236 2.1,3.7 6.7,5 10.3,2.9 3.7,-2.1 5,-6.7 2.9,-10.4 -5.4,-9.5 -133.8,-233.4 -207.7,-243.5 -4.6,-0.7 -9,-1 -13.3,-1" /><path
         id="path98"
         style="fill:#e2f2f1;fill-opacity:1;fill-rule:nonzero;stroke:none"
         d="m 12157.1,11187.9 54.8,68.7 c 0,0 485.9,-136.6 661.8,-535 l -77,-103.7 c 0,0 -355.3,443.4 -639.6,570" /><path
         id="path100"
         style="fill:#ef3a4c;fill-opacity:1;fill-rule:nonzero;stroke:none"
         d="m 10422.6,6997.4 8.9,11.6 -46.6,2614.4 c 0,0 859.9,-576.7 1117.6,-587.8 257.7,-11 1323.1,1570.5 1323.1,1570.5 -224.5,515.4 -697.3,586.8 -697.3,586.8 l -879.8,-964.5 -1030.8,935 c -137.5,83.5 -1193.99,101.5 -1193.99,101.5 0,0 -1202.57,27.4 -1340.01,-56 -137.44,-83.5 -643.01,-1457.9 -721.54,-2081.2 -78.54,-623.4 0,-1027.1 476.12,-1100.7 l 173.19,-3.7 13.33,-1025.9 c 0,0 959.6,-216 2797.8,0" /><path
         id="path102"
         style="fill:#49263e;fill-opacity:1;fill-rule:nonzero;stroke:none"
         d="M 10013.3,7840.4 H 8969.33 c -66.09,0 -119.67,53.6 -119.67,119.7 v 1384.1 c 0,66.1 53.58,119.7 119.67,119.7 h 1043.97 c 66.1,0 119.7,-53.6 119.7,-119.7 V 7960.1 c 0,-66.1 -53.6,-119.7 -119.7,-119.7" /><path
         id="path104"
         style="fill:#e2f2f1;fill-opacity:1;fill-rule:nonzero;stroke:none"
         d="m 9817.1,9525.3 h -597.78 c -33.89,0 -61.36,-27.5 -61.36,-61.4 h 720.5 c 0,33.9 -27.47,61.4 -61.36,61.4" /><path
         id="path106"
         style="fill:#fe9f73;fill-opacity:1;fill-rule:nonzero;stroke:none"
         d="m 10163.7,8628 c 138.7,122.2 -6.6,142.7 -6.6,142.7 67.7,73.2 51.9,107.4 27.1,123.1 -18.2,11.6 -41.1,12.8 -61.2,5 -63.7,-24.7 -258.07,-101 -376.82,-155.8 -84.42,6 -57.5,148.3 -19.73,221.2 19.45,37.6 20.8,99.6 -70.82,37.1 -74.86,-51.1 -187.35,-219.2 -187.35,-219.2 l -470.51,45.2 70.1,-648.4 c 0,0 537.1,7.5 618.02,8.1 80.94,0.6 351.91,92.9 433.81,164.1 148.5,129.3 55.1,135.9 55.1,135.9 141.7,148.8 -11.1,141 -11.1,141" /><path
         id="path108"
         style="fill:#f07162;fill-opacity:1;fill-rule:nonzero;stroke:none"
         d="m 9987.3,8663.7 c -4.09,-0.3 -8.1,2 -9.75,6 -2.05,4.9 0.32,10.6 5.28,12.7 69.67,28.7 167.77,95.7 168.77,96.4 4.4,3 10.5,1.9 13.5,-2.6 3.1,-4.4 1.9,-10.5 -2.5,-13.5 -4.1,-2.8 -100.8,-68.8 -172.35,-98.3 -0.97,-0.4 -1.96,-0.6 -2.95,-0.7" /><path
         id="path110"
         style="fill:#f07162;fill-opacity:1;fill-rule:nonzero;stroke:none"
         d="m 9996.94,8540.8 c -4.58,-0.3 -8.91,2.6 -10.15,7.2 -1.38,5.2 1.69,10.5 6.88,11.9 88.53,23.8 163.73,75.6 164.53,76.1 4.4,3.1 10.5,2 13.5,-2.4 3.1,-4.4 2,-10.5 -2.4,-13.6 -3.2,-2.2 -78.7,-54.2 -170.59,-78.9 l -1.77,-0.3" /><path
         id="path112"
         style="fill:#f07162;fill-opacity:1;fill-rule:nonzero;stroke:none"
         d="m 10029.5,8402.4 c -4.5,-0.3 -8.7,2.5 -10.1,6.9 -1.5,5.2 1.4,10.6 6.6,12.1 75.8,22.8 142.3,72.8 142.9,73.4 4.3,3.2 10.4,2.4 13.7,-1.9 3.2,-4.3 2.4,-10.4 -1.9,-13.7 -2.8,-2.1 -70,-52.7 -149.2,-76.4 l -2,-0.4" /><path
         id="path114"
         style="fill:#21111d;fill-opacity:1;fill-rule:nonzero;stroke:none"
         d="m 7875.11,8949.2 -19.6,23.2 191.53,161.9 73.11,888 30.26,-2.5 -74.15,-900.6 -201.15,-170" /><path
         id="path116"
         style="fill:#21111d;fill-opacity:1;fill-rule:nonzero;stroke:none"
         d="m 7611.15,8008.1 -175.18,3.8 c -233.68,36.2 -383.49,152 -457.98,354 -64.63,175.3 -74.45,417.9 -30.89,763.7 l 30.12,-3.8 c -88.77,-704.7 45.2,-1018.7 462.4,-1083.7 l 172.19,-3.7 -0.66,-30.3" /><path
         id="path118"
         style="fill:#e2f2f1;fill-opacity:1;fill-rule:nonzero;stroke:none"
         d="m 9294.87,8982.1 h 94.51 c 0,0 100.63,-647.1 -36.81,-944.1 h -117.52 c 0,0 137.1,607 59.82,944.1" /><path
         id="path120"
         style="fill:#ef3a4c;fill-opacity:1;fill-rule:nonzero;stroke:none"
         d="m 8800.62,9079.5 473.42,-30.4 c 0,0 95.71,-301.8 -19.32,-913.9 -11.17,-59.4 -34.68,-161 -34.68,-161 0,0 -480.71,-38.3 -556.16,117.8 -47.38,98.1 56.2,521.6 56.2,521.6 l 80.54,465.9" /><path
         id="path122"
         style="fill:#21111d;fill-opacity:1;fill-rule:nonzero;stroke:none"
         d="m 9231.73,7958.6 -1620.71,49.5 0.92,30.3 1596.29,-48.7 c 22.81,94.5 168.98,730.1 55.03,1044.9 l -1202.57,77 1.93,30.3 1222.07,-78.2 3.49,-9.1 c 132.77,-344.2 -45.78,-1054.1 -53.44,-1084.2 l -3.01,-11.8" /><path
         id="path124"
         style="fill:#21111d;fill-opacity:1;fill-rule:nonzero;stroke:none"
         d="m 11259.1,9970.4 -25.2,250.7 -998.1,905.4 c -73.2,66.4 -215.4,67.3 -216.8,67.3 v 30.3 0 c 6.5,0 155.3,-0.8 237.2,-75.1 l 1006.8,-913.3 26.3,-262.3 -30.2,-3" /><path
         id="path126"
         style="fill:#21111d;fill-opacity:1;fill-rule:nonzero;stroke:none"
         d="m 11259.7,10218.2 -22.5,20.4 885.4,970.6 8.1,-1.3 c 4.7,-0.8 472.8,-82.6 708.7,-595.5 l -27.6,-12.7 c -212.2,461.4 -616.5,563.6 -678,576.7 l -874.1,-958.2" /><path
         id="path128"
         style="fill:#e2f2f1;fill-opacity:1;fill-rule:nonzero;stroke:none"
         d="m 9594.27,11244.1 c -290.5,16.1 -570.56,20.8 -570.56,20.8 0,0 -232.83,5.3 -505.27,4.2 -0.02,-1.6 -0.12,-3.2 -0.12,-4.8 0,-297.3 240.97,-538.2 538.23,-538.2 290.5,0 527.1,230.1 537.72,518" /><path
         id="path130"
         style="fill:#21111d;fill-opacity:1;fill-rule:nonzero;stroke:none"
         d="m 9273.55,6892.1 c -9.03,0 -17.88,0.1 -26.61,0.2 l 0.29,30.3 c 379.45,-4 1056.07,75.7 1160.07,88.2 l -37.7,2864 30.4,0.4 38,-2891.2 -13.5,-1.6 c -7.5,-1 -734.62,-90.3 -1150.95,-90.3" /><path
         id="path132"
         style="fill:#21111d;fill-opacity:1;fill-rule:nonzero;stroke:none"
         d="m 8735.51,10697.8 c -152.83,95.2 -263.78,242.7 -312.41,415.3 l 29.22,8.2 c 46.57,-165.3 152.85,-306.5 299.26,-397.8 l -16.07,-25.7" /><path
         id="path134"
         style="fill:#fe9f73;fill-opacity:1;fill-rule:nonzero;stroke:none"
         d="m 8852.15,12354.8 c 0,0 214.42,91.2 404.78,25.7 110.23,-37.9 183.45,-142.7 183.45,-259.2 v -114 l -586.75,250.6 c 0,0 -92.8,-43.9 -85.35,-30.6 7.44,13.3 83.87,127.5 83.87,127.5" /><path
         id="path136"
         style="fill:#fe9f73;fill-opacity:1;fill-rule:nonzero;stroke:none"
         d="m 9440.33,12134.1 v -480.7 c 0,0 7.16,-171.7 -143.13,-193.2 l 28.06,-229.2 c 10.43,-85.1 -40.5,-166.7 -122.31,-192.6 -40,-12.6 -87.75,-21.9 -141.9,-21.9 -171.75,0 -264.79,128.8 -279.1,193.2 -14.31,64.4 28.63,372.1 28.63,372.1 l -5.23,151.3 19.54,585.8 615.44,-184.8" /><path
         id="path138"
         style="fill:#21111d;fill-opacity:1;fill-rule:nonzero;stroke:none"
         d="m 9025.66,11907.4 c -1.78,0 -3.57,0.7 -4.95,2 -2.85,2.8 -2.95,7.3 -0.21,10.2 0.98,1 99.41,101.7 189.35,29.2 3.08,-2.5 3.57,-7 1.09,-10.1 -2.48,-3 -6.98,-3.5 -10.07,-1 -79.69,64.2 -166.4,-24.3 -170.04,-28 -1.41,-1.5 -3.29,-2.3 -5.17,-2.3" /><path
         id="path140"
         style="fill:#21111d;fill-opacity:1;fill-rule:nonzero;stroke:none"
         d="m 9320.66,11950.4 c -2,0 -3.99,0.8 -5.41,2.5 -2.58,2.9 -2.27,7.5 0.72,10 2.88,2.5 71.15,60.9 114.3,23.9 3.01,-2.5 3.35,-7.1 0.78,-10.1 -2.57,-3 -7.09,-3.3 -10.09,-0.7 -33.81,28.9 -95,-23.3 -95.61,-23.9 -1.36,-1.1 -3.03,-1.7 -4.69,-1.7" /><path
         id="path142"
         style="fill:#000000;fill-opacity:1;fill-rule:nonzero;stroke:none"
         d="m 9170.38,11878.5 c 0,-11.8 -9.61,-21.4 -21.47,-21.4 -11.85,0 -21.47,9.6 -21.47,21.4 0,11.9 9.62,21.5 21.47,21.5 11.86,0 21.47,-9.6 21.47,-21.5" /><path
         id="path144"
         style="fill:#000000;fill-opacity:1;fill-rule:nonzero;stroke:none"
         d="m 9398.58,11900 c 0,-11.9 -9.61,-21.5 -21.47,-21.5 -11.85,0 -21.47,9.6 -21.47,21.5 0,11.9 9.62,21.5 21.47,21.5 11.86,0 21.47,-9.6 21.47,-21.5" /><path
         id="path146"
         style="fill:#21111d;fill-opacity:1;fill-rule:nonzero;stroke:none"
         d="m 8852.15,12362.3 c 0,0 -181.79,8.7 -227.91,-150.3 -46.11,-159.1 32.48,-243.1 34.07,-290.5 1.59,-47.4 -30.56,-367.1 193.84,-343.2 l 60.6,527.9 -78.1,210.2 17.5,45.9" /><path
         id="path148"
         style="fill:#fe9f73;fill-opacity:1;fill-rule:nonzero;stroke:none"
         d="m 8993.06,11886 c 0,-71.2 -57.67,-128.8 -128.81,-128.8 -71.14,0 -128.81,57.6 -128.81,128.8 0,71.1 57.67,128.8 128.81,128.8 71.14,0 128.81,-57.7 128.81,-128.8" /><path
         id="path150"
         style="fill:#f07162;fill-opacity:1;fill-rule:nonzero;stroke:none"
         d="m 8854.72,11807 c -26.76,0 -44.63,20.2 -50.51,40.3 -6.96,23.7 1.01,46.8 20.32,58.8 28.53,17.7 54.39,6.4 67.64,-2.3 -5.56,14.6 -14.28,25.2 -26.01,31.7 -25.38,13.9 -56.85,3.8 -57.17,3.7 -1.88,-0.7 -3.9,0.3 -4.52,2.2 -0.63,1.9 0.38,3.9 2.26,4.5 1.4,0.5 34.68,11.3 62.83,-4.1 16.25,-9 27.31,-24.8 32.87,-47 l 3.11,-12.4 -9.11,9 c -1.29,1.3 -31.92,31.1 -68.13,8.6 -20.04,-12.4 -21.81,-35.1 -17.23,-50.7 4.76,-16.3 19.02,-35.1 43.62,-35.1 h 0.74 c 1.95,0 3.55,-1.6 3.58,-3.5 0.03,-2 -1.55,-3.6 -3.53,-3.6 l -0.76,-0.1" /><path
         id="path152"
         style="fill:#f07162;fill-opacity:1;fill-rule:nonzero;stroke:none"
         d="m 8948.8,11606.1 c 0,0 10.08,-287.5 369.1,-314.9 l -20.7,169 c 0,0 -232.84,-46.8 -348.4,145.9" /><path
         id="path154"
         style="fill:#21111d;fill-opacity:1;fill-rule:nonzero;stroke:none"
         d="m 9465.25,11734.2 c 0,0 46.8,-344 -181.69,-356.3 -326.93,-17.5 -358.59,169.1 -378.02,321.8 l -3.28,315.1 10.49,91.4 v 0 c 23.11,-26.1 37.23,-58.9 40.34,-93.6 6.77,-75.6 23.51,-279.2 42.37,-288.2 26.63,-12.7 418.91,43 469.79,9.8" /><path
         id="path156"
         style="fill:#f07162;fill-opacity:1;fill-rule:nonzero;stroke:none"
         d="m 9246.11,11733.7 c -1.5,0 -2.9,1 -3.4,2.5 -0.62,1.9 0.4,3.9 2.28,4.5 l 71.73,23.7 -22.67,168.8 c -0.26,2 1.12,3.8 3.07,4 1.98,0.4 3.76,-1.1 4.03,-3 l 23.45,-174.7 -77.36,-25.6 -1.13,-0.2" /><path
         id="path158"
         style="fill:#fe9f73;fill-opacity:1;fill-rule:nonzero;stroke:none"
         d="m 8805.26,11541.9 24.95,242.3 60.16,-6.7 v -242.6 l -85.11,7" /><path
         id="path160"
         style="fill:#21111d;fill-opacity:1;fill-rule:nonzero;stroke:none"
         d="m 8885.78,12367.1 c 0,0 -42.14,-100.6 26.97,-268.4 69.12,-167.7 -177.31,62.6 -177.31,62.6 0,0 17.1,245.5 150.34,205.8" /><path
         id="path162"
         style="fill:#f07162;fill-opacity:1;fill-rule:nonzero;stroke:none"
         d="m 9162.87,11660.2 c 57.83,-74.7 136.84,-39.3 137.64,-38.9 2.49,1.2 3.57,4.1 2.42,6.6 -1.16,2.5 -4.11,3.6 -6.6,2.4 -3,-1.3 -72.71,-32.3 -125.55,36 -0.97,1.2 -1.92,2.5 -2.86,3.8 -1.47,2.1 -4.73,2.7 -6.96,1.1 -2.22,-1.6 -2.71,-4.7 -1.1,-7 0.99,-1.3 2,-2.7 3.01,-4" /><path
         id="path164"
         style="fill:#f07162;fill-opacity:1;fill-rule:nonzero;stroke:none"
         d="m 13034.9,11000.6 -1.3,0.1 c -41.7,7.1 -71.3,23.4 -88.1,48.4 -20.5,30.6 -13.7,62.8 -13.4,64.1 0.9,4.1 4.9,6.7 9.1,5.7 4,-0.8 6.6,-4.9 5.7,-9 0,-0.2 -5.6,-27.4 11.3,-52.6 14.4,-21.3 40.7,-35.3 78,-41.7 4.1,-0.7 6.9,-4.6 6.2,-8.7 -0.6,-3.7 -3.8,-6.3 -7.5,-6.3" /><g
         transform="scale(1.15217)"
         id="g166"><path
           id="path168"
           style="fill:#21111d;fill-opacity:1;fill-rule:nonzero;stroke:none"
           d="M 16300,4147.12 H 5777.16 v 26.39 H 16273.7 v 4969.18 c 0,123.13 -104.1,223.31 -231.8,223.31 v 26.34 c 142.3,0 258.1,-112 258.1,-249.65 V 4147.12" /></g><path
         id="path170"
         style="fill:#21111d;fill-opacity:1;fill-rule:nonzero;stroke:none"
         d="m 8912.75,12098.7 c 0,0 547.04,32.4 580.76,160.6 33.72,128.1 -94.93,131.5 -94.93,131.5 0,0 24.11,182.1 -141.15,128.2 -165.25,-54 -471.39,-46.9 -557.46,-200.1 -86.08,-153.1 212.78,-220.2 212.78,-220.2" /><path
         id="path172"
         style="fill:#f75553;fill-opacity:1;fill-rule:nonzero;stroke:none"
         d="m 11140.7,6777.9 -111.6,-81.7 -108,368.4 z m -189.8,-138.9 -131.8,-96.4 c -20.3,-14.8 -24.7,-43.3 -9.9,-63.6 8.9,-12.2 22.8,-18.7 36.8,-18.7 9.3,0 18.7,2.9 26.9,8.8 l 105.2,77.1 92.7,-316 c 5.8,-19.9 23.9,-32.8 43.6,-32.8 4.3,0 8.6,0.6 12.9,1.9 24.1,7 37.9,32.4 30.8,56.5 l -101.8,347.5 139.8,102.3 165.5,-216 c 15.3,-20 43.9,-23.8 63.8,-8.5 20,15.3 23.8,43.9 8.5,63.8 l -164.3,214.5 88.9,65 c 20.3,14.8 24.7,43.3 9.8,63.6 -14.8,20.3 -43.3,24.7 -63.6,9.8 l -90.5,-66.1 -307.2,401 c -19.2,25.1 -52.3,32.7 -80.5,18.3 -28.2,-14.2 -41.7,-45.4 -32.8,-75.7 l 157.2,-536.3" /><path
         id="path174"
         style="fill:#258d8c;fill-opacity:1;fill-rule:nonzero;stroke:none"
         d="m 11660.9,7866.9 c 1.2,-0.9 3.9,-3.2 7.6,-8.4 32.6,-45.9 14.1,-170 -24.7,-306.6 l -63.1,216 c 44.5,78.3 68.4,96.7 80.2,99 z m 330.1,-349.8 c 36.9,-5.8 65.5,-30.3 87.5,-75.1 22.2,-45.2 24.8,-90.1 7.9,-137.1 -45,-124.7 -209.8,-226 -291.8,-269.9 l -97.7,334.8 c 70.8,64.3 201.4,162 294.1,147.3 z m -550.7,29.9 c 32.1,0 40.7,18.5 69.1,79.8 3.7,8 7.3,15.7 10.8,23.2 l 73.6,-251.9 c -1,-2.7 -1.9,-5.3 -2.9,-7.9 -1.5,-3 -2.6,-6.1 -3.4,-9.3 -18.2,-49.2 -37.4,-96.4 -56.1,-138.6 -10.2,-23 0.1,-49.9 23.1,-60.1 6,-2.7 12.3,-3.9 18.4,-3.9 17.5,0 34.1,10.1 41.7,27 5,11.2 12.3,28 21.1,49.2 l 107.2,-367.2 c 5.8,-19.9 23.9,-32.8 43.7,-32.8 4.2,0 8.5,0.6 12.7,1.8 24.2,7.1 38,32.4 31,56.5 l -9.6,32.8 c 84.5,43.4 291.9,163.9 351.2,328.2 25.6,70.6 21.6,140.7 -11.7,208.4 -44.3,90.1 -108.9,117.6 -155.2,124.9 -94.6,14.7 -198,-38.7 -277.1,-95 44.6,152.6 71.9,318.7 14.9,399.1 -31.8,44.7 -69.5,48.3 -89.2,46.5 -40.4,-3.7 -77.5,-35.6 -112.3,-82.8 -11.2,9.3 -26.7,13.1 -41.8,8.7 -24.1,-7.1 -38,-32.4 -30.9,-56.5 l 14,-48 c -19.2,-36.1 -37.8,-75 -55.9,-114.1 -7.4,-16 -15.6,-33.8 -19.7,-41.5 -7.6,-8.1 -12.2,-19 -12.2,-31 0,-25.1 20.4,-45.5 45.5,-45.5" /><path
         id="path176"
         style="fill:#397fa1;fill-opacity:1;fill-rule:nonzero;stroke:none"
         d="m 12806.6,7026.7 c 49.5,0 105.6,5.9 169.3,19.3 24.6,5.2 40.4,29.3 35.2,53.9 -5.2,24.6 -29.2,40.4 -53.9,35.2 -212.7,-44.6 -347.7,-3.6 -401.2,122 -88.4,207.7 60.9,560.3 166.4,632.2 45.2,30.8 87.7,41.4 126.4,31.5 72.9,-18.6 116.6,-102.6 117.5,-104.3 11.3,-22.4 38.6,-31.4 61.1,-20.2 22.4,11.2 31.6,38.6 20.3,61.1 -2.5,4.9 -62.1,122 -175.6,151.5 -65.3,17 -133,2 -201,-44.3 -146.7,-100.1 -300.3,-505 -198.9,-743.2 40.4,-94.7 131.1,-194.7 334.4,-194.7" /><path
         id="path178"
         style="fill:#61a3c5;fill-opacity:1;fill-rule:nonzero;stroke:none"
         d="m 12117.1,6360.9 -967.3,-664 -39.5,-394.8 -198.9,280 -244.1,-175 c -20.4,-14.7 -25.1,-43.1 -10.4,-63.6 14.6,-20.4 43.1,-25.1 63.5,-10.4 l 169.7,121.7 286.7,-403.4 59.4,594.4 932.5,640 c 20.7,14.2 26,42.6 11.7,63.3 -14.2,20.8 -42.5,26 -63.3,11.8" /><path
         id="path180"
         style="fill:#f75553;fill-opacity:1;fill-rule:nonzero;stroke:none"
         d="m 13469.6,6069.9 c -9.5,23.3 -36,34.5 -59.3,25.1 l -840.9,-341.8 c -23.3,-9.4 -34.5,-36 -25,-59.3 7.2,-17.7 24.2,-28.4 42.2,-28.4 5.7,0 11.5,1.1 17.1,3.4 l 840.9,341.7 c 23.3,9.5 34.5,36 25,59.3" /><path
         id="path182"
         style="fill:#f75553;fill-opacity:1;fill-rule:nonzero;stroke:none"
         d="m 12945.7,6187.7 c -42.2,0 -76.4,-34.2 -76.4,-76.5 0,-42.2 34.2,-76.4 76.4,-76.4 42.2,0 76.5,34.2 76.5,76.4 0,42.3 -34.3,76.5 -76.5,76.5" /><path
         id="path184"
         style="fill:#f75553;fill-opacity:1;fill-rule:nonzero;stroke:none"
         d="m 13098.6,5711 c -42.2,0 -76.4,-34.2 -76.4,-76.4 0,-42.2 34.2,-76.4 76.4,-76.4 42.2,0 76.5,34.2 76.5,76.4 0,42.2 -34.3,76.4 -76.5,76.4" /><path
         id="path186"
         style="fill:#fe9f73;fill-opacity:1;fill-rule:nonzero;stroke:none"
         d="m 12698.9,8315.5 c 8.8,-8.5 20.2,-12.7 31.6,-12.7 11.9,0 23.8,4.7 32.8,13.9 l 230.2,239.2 230.3,-239.2 c 8.9,-9.2 20.8,-13.9 32.8,-13.9 11.3,0 22.7,4.2 31.5,12.7 18.2,17.5 18.7,46.3 1.3,64.4 l -232.7,241.6 232.7,241.6 c 17.4,18.1 16.9,46.9 -1.3,64.4 -18.1,17.4 -46.9,16.9 -64.3,-1.2 l -230.3,-239.2 -230.2,239.2 c -17.5,18.1 -46.3,18.6 -64.4,1.2 -18.1,-17.5 -18.7,-46.3 -1.2,-64.4 l 232.6,-241.6 -232.6,-241.6 c -17.5,-18.1 -16.9,-46.9 1.2,-64.4" /><path
         id="path188"
         style="fill:#258d8c;fill-opacity:1;fill-rule:nonzero;stroke:none"
         d="m 3932.83,5625.4 h -636.28 l -256.31,-3682 h 1148.9 l -256.31,3682" /><path
         id="path190"
         style="fill:#f99247;fill-opacity:1;fill-rule:nonzero;stroke:none"
         d="m 3973.48,5551.4 h -723.19 c -52.37,0 -94.82,42.5 -94.82,94.8 v 350.4 h 912.83 v -350.4 c 0,-52.3 -42.46,-94.8 -94.82,-94.8" /><path
         id="path192"
         style="fill:#21111d;fill-opacity:1;fill-rule:nonzero;stroke:none"
         d="m 3796.25,5536.2 h -496.89 c -87.71,0 -159.07,71.4 -159.07,159.1 v 301.3 h 30.35 v -301.3 c 0,-71 57.74,-128.7 128.72,-128.7 h 496.89 v -30.4" /><path
         id="path194"
         style="fill:#fecc86;fill-opacity:1;fill-rule:nonzero;stroke:none"
         d="m 5538.7,7687.3 c 0,-1067.9 -865.69,-1933.5 -1933.56,-1933.5 -1067.88,0 -1933.56,865.6 -1933.56,1933.5 0,1067.9 865.68,1933.6 1933.56,1933.6 1067.87,0 1933.56,-865.7 1933.56,-1933.6" /><path
         id="path196"
         style="fill:#e2f2f1;fill-opacity:1;fill-rule:nonzero;stroke:none"
         d="m 5273.4,7687.3 c 0,-921.3 -746.91,-1668.2 -1668.26,-1668.2 -921.36,0 -1668.26,746.9 -1668.26,1668.2 0,921.4 746.9,1668.3 1668.26,1668.3 921.35,0 1668.26,-746.9 1668.26,-1668.3" /><path
         id="path198"
         style="fill:#21111d;fill-opacity:1;fill-rule:nonzero;stroke:none"
         d="m 3605.14,5738.6 c -1074.53,0 -1948.74,874.2 -1948.74,1948.7 0,1074.6 874.21,1948.8 1948.74,1948.8 503.75,0 981.69,-191.6 1345.82,-539.4 L 4930,9074.8 c -358.45,342.3 -828.97,530.9 -1324.86,530.9 -1057.8,0 -1918.39,-860.6 -1918.39,-1918.4 0,-1057.8 860.59,-1918.4 1918.39,-1918.4 490.99,0 958.1,185.4 1315.29,521.9 l 20.81,-22.1 C 4578.4,5926.9 4103.89,5738.6 3605.14,5738.6" /><path
         id="path200"
         style="fill:#f3fffe;fill-opacity:1;fill-rule:nonzero;stroke:none"
         d="m 4772.18,8003 c -116.86,-116.9 -409.98,-13.2 -654.69,231.5 -244.71,244.7 -348.34,537.8 -231.47,654.7 116.86,116.8 409.98,13.2 654.69,-231.5 244.71,-244.7 348.34,-537.8 231.47,-654.7" /><path
         id="path202"
         style="fill:#21111d;fill-opacity:1;fill-rule:nonzero;stroke:none"
         d="m 3064.78,2077.5 -30.26,2.1 249.71,3472.9 30.26,-2.2 -249.71,-3472.8" /><path
         id="path204"
         style="fill:#21111d;fill-opacity:1;fill-rule:nonzero;stroke:none"
         d="m 2578.41,8703.3 -24.01,18.5 c 2.33,3 236.85,302.1 593.39,378.8 l 6.38,-29.7 c -345.44,-74.3 -573.49,-364.7 -575.76,-367.6" /><path
         id="path206"
         style="fill:#21111d;fill-opacity:1;fill-rule:nonzero;stroke:none"
         d="m 2673.41,8516.7 -24.01,18.5 c 2.33,3 236.85,302.1 593.39,378.8 l 6.37,-29.7 C 2903.73,8810 2675.68,8519.6 2673.41,8516.7" /><path
         id="path208"
         style="fill:#f99247;fill-opacity:1;fill-rule:nonzero;stroke:none"
         d="M 5846.72,2434 H 1563.61 c -53.37,0 -96.63,-43.3 -96.63,-96.6 v -727 H 5846.72 V 2434" /><path
         id="path210"
         style="fill:#fecc86;fill-opacity:1;fill-rule:nonzero;stroke:none"
         d="m 1864.93,2022.2 h -53.96 V 2434 h 53.96 v -411.8" /><path
         id="path212"
         style="fill:#fecc86;fill-opacity:1;fill-rule:nonzero;stroke:none"
         d="m 2428.14,2022.2 h -53.96 V 2434 h 53.96 v -411.8" /><path
         id="path214"
         style="fill:#fecc86;fill-opacity:1;fill-rule:nonzero;stroke:none"
         d="m 2148.22,2184 h -53.96 v 250 h 53.96 v -250" /><path
         id="path216"
         style="fill:#fecc86;fill-opacity:1;fill-rule:nonzero;stroke:none"
         d="m 3043.62,2022.2 h -53.96 V 2434 h 53.96 v -411.8" /><path
         id="path218"
         style="fill:#fecc86;fill-opacity:1;fill-rule:nonzero;stroke:none"
         d="m 2763.7,2184 h -53.96 v 250 h 53.96 v -250" /><path
         id="path220"
         style="fill:#fecc86;fill-opacity:1;fill-rule:nonzero;stroke:none"
         d="m 3659.1,2022.2 h -53.96 V 2434 h 53.96 v -411.8" /><path
         id="path222"
         style="fill:#fecc86;fill-opacity:1;fill-rule:nonzero;stroke:none"
         d="m 3379.18,2184 h -53.96 v 250 h 53.96 v -250" /><path
         id="path224"
         style="fill:#fecc86;fill-opacity:1;fill-rule:nonzero;stroke:none"
         d="m 4274.58,2022.2 h -53.96 V 2434 h 53.96 v -411.8" /><path
         id="path226"
         style="fill:#fecc86;fill-opacity:1;fill-rule:nonzero;stroke:none"
         d="m 3994.66,2184 h -53.96 v 250 h 53.96 v -250" /><path
         id="path228"
         style="fill:#fecc86;fill-opacity:1;fill-rule:nonzero;stroke:none"
         d="M 4890.06,2022.2 H 4836.1 V 2434 h 53.96 v -411.8" /><path
         id="path230"
         style="fill:#fecc86;fill-opacity:1;fill-rule:nonzero;stroke:none"
         d="m 4610.14,2184 h -53.96 v 250 h 53.96 v -250" /><path
         id="path232"
         style="fill:#fecc86;fill-opacity:1;fill-rule:nonzero;stroke:none"
         d="m 7430.47,5214.2 2052.07,-2972.7 -2055.16,2.1 z m -528.18,1806.6 2.86,-5406.5 3767.55,-3.9 -3770.41,5410.4" /><path
         id="path234"
         style="fill:#f99247;fill-opacity:1;fill-rule:nonzero;stroke:none"
         d="m 7046.26,6301.5 -27.65,39.8 240.77,167.5 27.66,-39.8 -240.78,-167.5" /><path
         id="path236"
         style="fill:#f99247;fill-opacity:1;fill-rule:nonzero;stroke:none"
         d="m 7438.4,5744.9 -27.65,39.8 237.77,165.4 27.65,-39.7 -237.77,-165.5" /><path
         id="path238"
         style="fill:#f99247;fill-opacity:1;fill-rule:nonzero;stroke:none"
         d="m 7370.96,6094.8 -27.65,39.8 118.96,82.7 27.65,-39.7 -118.96,-82.8" /><path
         id="path240"
         style="fill:#f99247;fill-opacity:1;fill-rule:nonzero;stroke:none"
         d="m 7834.35,5175.9 -27.66,39.7 238.18,165.7 27.65,-39.7 -238.17,-165.7" /><path
         id="path242"
         style="fill:#f99247;fill-opacity:1;fill-rule:nonzero;stroke:none"
         d="m 7766.9,5525.8 -27.65,39.7 119.38,83.1 27.65,-39.8 -119.38,-83" /><path
         id="path244"
         style="fill:#f99247;fill-opacity:1;fill-rule:nonzero;stroke:none"
         d="m 8230.29,4606.8 -27.65,39.7 238.6,166 27.65,-39.7 -238.6,-166" /><path
         id="path246"
         style="fill:#f99247;fill-opacity:1;fill-rule:nonzero;stroke:none"
         d="m 8162.85,4956.7 -27.65,39.8 119.79,83.3 27.65,-39.7 -119.79,-83.4" /><path
         id="path248"
         style="fill:#f99247;fill-opacity:1;fill-rule:nonzero;stroke:none"
         d="m 8626.24,4037.7 -27.66,39.8 239.02,166.3 27.65,-39.8 -239.01,-166.3" /><path
         id="path250"
         style="fill:#f99247;fill-opacity:1;fill-rule:nonzero;stroke:none"
         d="m 8558.8,4387.6 -27.65,39.8 120.38,83.8 27.65,-39.8 -120.38,-83.8" /><path
         id="path252"
         style="fill:#f99247;fill-opacity:1;fill-rule:nonzero;stroke:none"
         d="m 9022.18,3468.7 -27.65,39.7 239.43,166.6 27.65,-39.7 -239.43,-166.6" /><path
         id="path254"
         style="fill:#f99247;fill-opacity:1;fill-rule:nonzero;stroke:none"
         d="m 8954.74,3818.6 -27.65,39.7 120.39,83.8 27.65,-39.7 -120.39,-83.8" /><path
         id="path256"
         style="fill:#f99247;fill-opacity:1;fill-rule:nonzero;stroke:none"
         d="m 9418.13,2899.6 -27.65,39.8 239.83,166.8 27.65,-39.7 -239.83,-166.9" /><path
         id="path258"
         style="fill:#f99247;fill-opacity:1;fill-rule:nonzero;stroke:none"
         d="m 9350.69,3249.5 -27.65,39.8 121.01,84.2 27.65,-39.8 -121.01,-84.2" /><path
         id="path260"
         style="fill:#f99247;fill-opacity:1;fill-rule:nonzero;stroke:none"
         d="m 9814.07,2330.6 -27.65,39.7 240.28,167.2 27.6,-39.8 -240.23,-167.1" /><path
         id="path262"
         style="fill:#f99247;fill-opacity:1;fill-rule:nonzero;stroke:none"
         d="m 9746.63,2680.5 -27.65,39.7 121.44,84.5 27.65,-39.7 -121.44,-84.5" /><path
         id="path264"
         style="fill:#f99247;fill-opacity:1;fill-rule:nonzero;stroke:none"
         d="m 10210,1761.5 -27.6,39.7 240.7,167.6 27.7,-39.8 -240.8,-167.5" /><path
         id="path266"
         style="fill:#f99247;fill-opacity:1;fill-rule:nonzero;stroke:none"
         d="m 10142.6,2111.4 -27.7,39.8 121.9,84.7 27.6,-39.7 -121.8,-84.8" /><path
         id="path268"
         style="fill:#21111d;fill-opacity:1;fill-rule:nonzero;stroke:none"
         d="m 6377.39,4659.7 c -32.15,0 -60.18,23.8 -64.69,56.5 -0.82,5.9 -84.86,596.3 -392.65,1079 -19.42,30.4 -10.47,70.8 19.97,90.3 30.44,19.4 70.87,10.4 90.28,-20 323.62,-507.5 408.49,-1106.3 411.95,-1131.5 4.89,-35.8 -20.13,-68.8 -55.89,-73.7 -3.02,-0.4 -6.01,-0.6 -8.97,-0.6" /><path
         id="path270"
         style="fill:#ff424d;fill-opacity:1;fill-rule:nonzero;stroke:none"
         d="m 8144.71,4704.4 c -377.75,668.3 -958.89,610.2 -1278.52,435.8 -259.08,-141.3 -489.48,-177.6 -567.49,-186.3 -78.02,8.7 -308.42,45 -567.49,186.3 -319.63,174.4 -900.78,232.5 -1278.52,-435.8 -377.75,-668.3 246.98,-3022 1162.29,-3123.7 0,0 276.04,0 377.74,0 40.27,0 92.04,2.3 150.57,4.1 3.44,-3 7.1,-4.4 11,-4.1 48.68,4.1 97.31,5.8 144.41,6.3 47.1,-0.5 95.72,-2.2 144.41,-6.3 3.89,-0.3 7.55,1.1 10.99,4.1 58.54,-1.8 110.31,-4.1 150.57,-4.1 101.7,0 377.75,0 377.75,0 915.3,101.7 1540.03,2455.4 1162.29,3123.7" /><path
         id="path272"
         style="fill:#21111d;fill-opacity:1;fill-rule:nonzero;stroke:none"
         d="m 4740.55,4566.8 c -2.04,0 -4.13,0.5 -6.14,1.3 -7.66,3.4 -11.11,12.4 -7.72,20.1 1.41,3.2 145.16,319.8 495.44,398.8 8.15,1.9 16.3,-3.3 18.14,-11.4 1.83,-8.2 -3.29,-16.3 -11.47,-18.2 -335.02,-75.5 -473,-378.5 -474.36,-381.5 -2.51,-5.7 -8.06,-9.1 -13.89,-9.1" /><path
         id="path274"
         style="fill:#21111d;fill-opacity:1;fill-rule:nonzero;stroke:none"
         d="m 4825.86,4425.6 c -2.05,0 -4.14,0.4 -6.14,1.3 -7.66,3.4 -11.11,12.3 -7.72,20 1.41,3.2 145.15,319.9 495.44,398.9 8.13,1.8 16.3,-3.3 18.14,-11.5 1.83,-8.2 -3.29,-16.3 -11.47,-18.2 -335.02,-75.5 -473,-378.4 -474.36,-381.5 -2.51,-5.7 -8.07,-9 -13.89,-9" /><path
         id="path276"
         style="fill:#ef3a4c;fill-opacity:1;fill-rule:nonzero;stroke:none"
         d="M 7553.49,5220.9 C 6927.61,4355.5 5720.86,2864 4671.71,2600.9 c 229.06,-541.8 560.75,-977.7 943.27,-1020.2 0,0 276.04,0 377.74,0 40.27,0 92.04,2.3 150.57,4.1 3.44,-3 7.1,-4.4 11,-4.1 48.68,4.1 97.31,5.8 144.41,6.3 47.1,-0.5 95.72,-2.2 144.41,-6.3 3.89,-0.3 7.55,1.1 10.99,4.1 58.54,-1.8 110.31,-4.1 150.57,-4.1 101.7,0 377.75,0 377.75,0 915.3,101.7 1540.03,2455.4 1162.29,3123.7 -170,300.7 -381.2,454.3 -591.22,516.5" /><path
         id="path278"
         style="fill:#f46e6e;fill-opacity:1;fill-rule:nonzero;stroke:none"
         d="m 7735.96,4426.9 c -51.88,-89.8 -246.44,-74.6 -434.57,34 -188.13,108.6 -298.59,269.5 -246.72,359.4 51.88,89.8 246.44,74.6 434.57,-34 188.13,-108.6 298.59,-269.5 246.72,-359.4" /><path
         id="path280"
         style="fill:#21111d;fill-opacity:1;fill-rule:nonzero;stroke:none"
         d="m 5992.72,1565.5 -379.42,0.1 c -385.51,42.9 -673.89,457.4 -847.94,797.6 -411.08,803.7 -566.41,1923.1 -325.87,2348.6 169.16,299.3 401.28,486.5 671.23,541.4 206.11,41.8 434.92,5.5 627.74,-99.7 253.64,-138.3 477.46,-175.1 561.91,-184.5 2.1,-0.3 177.47,-21.5 407.09,111.5 7.23,4.2 16.53,1.7 20.73,-5.5 4.21,-7.3 1.74,-16.6 -5.53,-20.8 -239.21,-138.5 -418.51,-116.3 -426,-115.3 -85.88,9.5 -314.36,47.1 -572.72,188 -288.16,157.2 -877.38,243.5 -1258.04,-430 -112.99,-199.9 -140.41,-574.4 -75.22,-1027.5 64.52,-448.4 210.95,-919.4 401.71,-1292.3 240.98,-471.1 533.4,-748.5 823.43,-781.2 h 376.9 c 8.39,0 15.18,-6.8 15.18,-15.2 0,-8.4 -6.79,-15.2 -15.18,-15.2" /><path
         id="path282"
         style="fill:#21111d;fill-opacity:1;fill-rule:nonzero;stroke:none"
         d="m 1469.23,1595.2 c -8.39,0 -15.17,6.8 -15.17,15.2 v 677 c 0,89.2 72.59,161.8 161.82,161.8 h 3131.34 c 8.39,0 15.18,-6.8 15.18,-15.2 0,-8.4 -6.79,-15.2 -15.18,-15.2 H 1615.88 c -72.49,0 -131.47,-59 -131.47,-131.4 v -677 c 0,-8.4 -6.79,-15.2 -15.18,-15.2" /><g
         transform="scale(1.31983)"
         id="g284"><path
           id="path286"
           style="fill:#fecc86;fill-opacity:1;fill-rule:nonzero;stroke:none"
           d="m 16300,10952.3 c 0,1054.5 -854.9,1909.4 -1909.4,1909.4 -1054.5,0 -1909.4,-854.9 -1909.4,-1909.4 0,-523 210.5,-996.89 551.1,-1341.75 l -0.1,-0.01 c 0,0 577.8,-617.95 773,-1291.48 0,0 333.6,-113.3 585.4,-119.59 251.8,6.29 585.4,119.59 585.4,119.59 195.1,673.53 772.9,1291.48 772.9,1291.48 v 0.01 c 340.7,344.86 551.1,818.75 551.1,1341.75" /></g><g
         transform="scale(1.18921)"
         id="g288"><path
           id="path290"
           style="fill:#4cb7d8;fill-opacity:1;fill-rule:nonzero;stroke:none"
           d="m 15970.6,7987.54 v 0 c -181.9,0 -329.4,147.49 -329.4,329.38 h 658.8 c 0,-181.89 -147.4,-329.38 -329.4,-329.38" /></g><g
         transform="scale(1.21672)"
         id="g292"><path
           id="path294"
           style="fill:#4cb7d8;fill-opacity:1;fill-rule:nonzero;stroke:none"
           d="m 15694.4,8040.77 h -169.7 c -334.5,0 -605.6,271.13 -605.6,605.6 v 542.78 H 16300 v -542.78 c 0,-334.47 -271.1,-605.6 -605.6,-605.6" /></g><g
         transform="scale(1.27521)"
         id="g296"><path
           id="path298"
           style="fill:#fee1bd;fill-opacity:1;fill-rule:nonzero;stroke:none"
           d="m 15552.4,8767.63 v 0.08 c 230.8,616.52 721.3,1150.62 746.6,1178 -25.3,-27.36 -515.8,-561.52 -746.6,-1178.08 m -1316.6,0.08 v 0 c -117.2,313.34 -301.6,605.4 -457.9,820.45 156.3,-215.07 340.7,-507.09 457.9,-820.45 m -458.1,820.68 c -0.3,0.38 -0.5,0.74 -0.8,1.11 0.3,-0.37 0.5,-0.73 0.8,-1.11 m -1.4,1.91 c 0,0.15 -0.2,0.32 -0.3,0.47 0.1,-0.14 0.3,-0.32 0.3,-0.47 m -1.1,1.54 c 0,0.1 -0.1,0.2 -0.2,0.31 0.1,-0.09 0.2,-0.22 0.2,-0.31 m -1.1,1.57 v 0.02 -0.02 m 2525,352.43 c 0.2,0.15 0.3,0.29 0.4,0.41 -0.1,-0.12 -0.2,-0.26 -0.4,-0.41 m 0.4,0.43 c 0,0.01 0,0.02 0,0.02 0,0 0,-0.01 0,-0.02 m 0.1,0.11 c 0.1,0.06 0.2,0.11 0.2,0.16 0,-0.05 -0.1,-0.1 -0.2,-0.16 m 0.2,0.18 c 0,0.02 0,0.04 0,0.06 0,-0.02 0,-0.04 0,-0.06 m 0,0.09 c 0,0.01 0.1,0.02 0.1,0.03 0,-0.01 -0.1,-0.02 -0.1,-0.03 m 0.1,0.05 c 0.1,0.05 0.1,0.08 0.1,0.1 0,-0.02 0,-0.05 -0.1,-0.1 m 0.1,0.11 v 0 0" /></g><g
         transform="scale(1.31983)"
         id="g300"><path
           id="path302"
           style="fill:#fff0da;fill-opacity:1;fill-rule:nonzero;stroke:none"
           d="m 16172.1,10264 v 0 c 82.6,213.5 127.9,445.6 127.9,688.3 v 0 c 0,-242.7 -45.3,-474.8 -127.9,-688.3" /></g><g
         transform="scale(1.30947)"
         id="g304"><path
           id="path306"
           style="fill:#fee1bd;fill-opacity:1;fill-rule:nonzero;stroke:none"
           d="m 15873.5,9686.54 -0.1,0.02 c 184.1,186.3 330.5,409.94 426.6,658.64 v 0 c -96.1,-248.7 -242.5,-472.33 -426.6,-658.63 l 0.1,-0.03" /></g><g
         transform="scale(1.31983)"
         id="g308"><path
           id="path310"
           style="fill:#fff0da;fill-opacity:1;fill-rule:nonzero;stroke:none"
           d="m 16300,10952.3 c 0,0.9 0,1.9 0,2.8 0,-0.9 0,-1.9 0,-2.8 m 0,3.6 c 0,0.7 0,1.4 0,2.1 0,-0.7 0,-1.4 0,-2.1 m 0,2.9 c 0,1 -0.1,1.8 -0.1,2.8 0,-1 0.1,-1.9 0.1,-2.8 m -0.1,3 c 0,0.8 0,1.6 0,2.5 0,-0.9 0,-1.7 0,-2.5 m 0,3.4 c 0,0.6 0,1.4 0,2 0,-0.6 0,-1.3 0,-2 m 0,2.8 c 0,1 0,1.8 0,2.7 0,-0.9 0,-1.8 0,-2.7 m -0.1,3.2 c 0,0.8 0,1.6 0,2.3 0,-0.8 0,-1.5 0,-2.3 m 0,3.2 c 0,0.7 0,1.3 0,2 0,-0.7 0,-1.4 0,-2 m 0,2.9 c 0,0.8 0,1.7 0,2.6 0,-0.9 0,-1.8 0,-2.6 m 0,3.3 c 0,0.7 0,1.4 0,2.1 0,-0.7 0,-1.4 0,-2.1 m -0.1,3.1 c 0,0.6 0,1.3 0,1.9 0,-0.6 0,-1.3 0,-1.9 m 0,2.7 c 0,0.9 -0.1,1.8 -0.1,2.7 0,-0.9 0.1,-1.8 0.1,-2.7 m -0.1,3.6 c 0,0.6 0,1.2 -0.1,1.8 0.1,-0.6 0.1,-1.2 0.1,-1.8 m -0.1,2.9 c 0,0.6 0,1.2 0,1.8 0,-0.6 0,-1.2 0,-1.8 m 0,2.8 c 0,0.8 0,1.6 0,2.5 0,-0.9 0,-1.7 0,-2.5 m -0.1,3.7 c 0,0.5 0,0.9 0,1.4 0,-0.4 0,-0.9 0,-1.4 m -0.1,2.8 c 0,0.5 0,0.9 0,1.4 0,-0.5 0,-0.9 0,-1.4 m -0.1,3.4 c 0,0.6 0,1.1 0,1.7 0,-0.6 0,-1.1 0,-1.7 m 0,3 c 0,0.5 0,0.9 -0.1,1.4 0.1,-0.5 0.1,-0.9 0.1,-1.4 m -0.1,2.8 c 0,0.4 0,0.8 -0.1,1.2 0.1,-0.4 0.1,-0.8 0.1,-1.2 m -0.2,3.9 c 0,0.4 0,0.7 0,1 0,-0.3 0,-0.7 0,-1 m 0,2.6 c 0,0.4 0,0.7 0,1.1 0,-0.4 0,-0.7 0,-1.1 m -0.1,2.7 c 0,0.3 0,0.6 -0.1,0.9 0.1,-0.3 0.1,-0.6 0.1,-0.9 m -0.2,4 c 0,0.3 0,0.6 0,0.8 0,-0.3 0,-0.5 0,-0.8 m 0,2.6 c 0,0.2 -0.1,0.5 -0.1,0.7 0,-0.2 0.1,-0.5 0.1,-0.7 m -0.3,6.9 c 0,0 0,0.2 0,0.3 0,-0.1 0,-0.2 0,-0.3 m -0.1,2.4 c 0,0.1 0,0.1 -0.1,0.3 0.1,-0.2 0.1,-0.2 0.1,-0.3 m -0.3,6.9 v 0 0" /></g><g
         transform="scale(1.31983)"
         id="g312"><path
           id="path314"
           style="fill:#fec073;fill-opacity:1;fill-rule:nonzero;stroke:none"
           d="m 15026.7,8471.3 h -1272.2 c -113.3,302.77 -291.4,584.92 -442.4,792.72 -0.1,0.07 -0.1,0.15 -0.1,0.21 -0.3,0.37 -0.6,0.72 -0.9,1.07 -0.1,0.27 -0.3,0.52 -0.5,0.78 -0.1,0.14 -0.2,0.31 -0.3,0.45 -0.3,0.35 -0.5,0.69 -0.8,1.04 0,0.08 -0.1,0.21 -0.2,0.3 -0.3,0.4 -0.6,0.81 -0.9,1.22 v 0.01 c -20.3,27.84 -40.1,54.3 -59.1,79.29 1282.9,358.94 2173.5,1284.41 2732,2660.41 185.6,-278.9 299.8,-609.4 316.6,-965.4 v 0 c 0.1,-2.2 0.1,-4.5 0.2,-6.6 0.1,-0.2 0.1,-0.2 0.1,-0.3 0,-0.7 0,-1.4 0.1,-2.1 0,-0.1 0,-0.3 0,-0.3 0,-2.1 0.1,-4.1 0.2,-6.2 0,-0.2 0.1,-0.5 0.1,-0.7 0,-0.6 0,-1.2 0,-1.8 0,-0.2 0,-0.5 0,-0.8 0,-1 0.1,-2.1 0.1,-3.1 0.1,-0.3 0.1,-0.6 0.1,-0.9 0,-0.5 0,-1.1 0.1,-1.6 0,-0.4 0,-0.7 0,-1.1 0,-0.5 0,-1 0,-1.6 0,-0.3 0,-0.6 0,-1 0.1,-0.9 0.1,-1.8 0.1,-2.7 0.1,-0.4 0.1,-0.8 0.1,-1.2 0,-0.5 0,-1 0,-1.4 0.1,-0.5 0.1,-0.9 0.1,-1.4 0,-0.4 0,-0.9 0,-1.3 0,-0.6 0,-1.1 0,-1.7 0,-0.6 0.1,-1.3 0.1,-2 0,-0.5 0,-0.9 0,-1.4 0,-0.5 0.1,-0.9 0.1,-1.4 0,-0.5 0,-0.9 0,-1.4 0,-0.4 0,-0.8 0.1,-1.2 0,-0.9 0,-1.7 0,-2.5 0,-0.4 0,-0.7 0,-1 0,-0.6 0,-1.2 0,-1.8 0,-0.4 0,-0.7 0,-1.1 0.1,-0.6 0.1,-1.2 0.1,-1.8 0,-0.3 0,-0.6 0,-0.9 0,-0.9 0.1,-1.8 0.1,-2.7 0,-0.2 0,-0.5 0,-0.8 0,-0.6 0,-1.3 0,-1.9 0,-0.4 0,-0.7 0.1,-1 0,-0.7 0,-1.4 0,-2.1 0,-0.2 0,-0.4 0,-0.7 0,-0.9 0,-1.8 0,-2.6 0,-0.3 0,-0.6 0,-0.9 0,-0.7 0,-1.3 0,-2 0,-0.3 0,-0.6 0,-0.9 0,-0.7 0,-1.5 0,-2.3 0,-0.1 0.1,-0.3 0.1,-0.5 0,-0.9 0,-1.7 0,-2.7 0,-0.3 0,-0.5 0,-0.8 0,-0.6 0,-1.4 0,-2 0,-0.3 0,-0.6 0,-0.9 0,-0.9 0,-1.7 0,-2.5 0,-0.1 0,-0.2 0,-0.2 0,-1 0.1,-1.8 0.1,-2.8 0,-0.3 0,-0.6 0,-0.8 0,-0.7 0,-1.4 0,-2.1 0,-0.2 0,-0.6 0,-0.8 0,-0.9 0,-1.9 0,-2.8 v 0 c 0,-242.7 -45.3,-474.8 -127.9,-688.3 -95.4,-246.7 -240.6,-468.6 -423.2,-653.45 v -0.01 0 0 0 c 0,-0.01 0,-0.01 0,-0.02 0,-0.01 0,-0.04 0,-0.09 0,-0.01 0,-0.01 0,-0.02 0,-0.01 -0.1,-0.02 -0.1,-0.03 0,-0.01 0,-0.02 0,-0.02 0,-0.03 0,-0.04 -0.1,-0.06 0,-0.01 0,-0.02 0,-0.03 0,-0.04 -0.1,-0.09 -0.1,-0.15 0,-0.02 0,-0.05 -0.1,-0.08 0,-0.01 0,-0.02 0,-0.03 0,0 0,-0.01 0,-0.02 -0.2,-0.11 -0.2,-0.25 -0.4,-0.39 -0.1,-0.04 -0.1,-0.08 -0.1,-0.12 -24.5,-26.46 -498.4,-542.5 -721.3,-1138.18" /></g><g
         transform="scale(1.21672)"
         id="g316"><path
           id="path318"
           style="fill:#4cacb9;fill-opacity:1;fill-rule:nonzero;stroke:none"
           d="m 16300,9189.15 h -1379.9 v 0 0 H 16300" /></g><g
         transform="scale(1.22898)"
         id="g320"><path
           id="path322"
           style="fill:#f99247;fill-opacity:1;fill-rule:nonzero;stroke:none"
           d="m 15775.5,12003 c -62.2,-142.8 -47.4,-367.1 8.7,-451.9 22.1,-33.4 38.4,-28.1 44.5,-26.1 65.8,21.2 123,128.9 103.2,255.5 -15.1,96.1 -69.9,172 -156.4,222.5 z m -677.7,0 c -86.5,-50.5 -141.4,-126.4 -156.4,-222.5 -19.9,-126.6 37.3,-234.3 103.2,-255.5 6.1,-2 22.4,-7.3 44.5,26.1 56.1,84.8 70.9,309.1 8.7,451.9 z m 691.6,-2913.51 -58.7,16.03 c 1.9,7.02 193.1,710.13 325.8,1430.28 230.1,1249.6 97.8,1514.6 -1.6,1561.4 -101.6,47.8 -181.4,39.2 -237.4,-25.5 -4.1,-4.7 -8.1,-9.7 -11.8,-14.8 143.4,-84.6 178,-214.4 186.2,-267 22.8,-145.1 -42.1,-289.9 -144.6,-322.8 -24.8,-8 -72.5,-12 -113.8,50.4 -65.6,99.1 -86.1,347 -12.7,512.3 -70.4,28.9 -156.3,44.2 -254.6,44.2 h -59.1 c -98.3,0 -184.2,-15.3 -254.6,-44.2 73.4,-165.3 52.9,-413.2 -12.7,-512.3 -41.3,-62.4 -89,-58.4 -113.9,-50.4 -102.5,32.9 -167.3,177.7 -144.6,322.8 8.3,52.6 42.9,182.4 186.2,267 -3.7,5.1 -7.6,10.1 -11.7,14.8 -56,64.7 -135.9,73.3 -237.4,25.5 -99.4,-46.8 -231.8,-311.8 -1.6,-1561.4 132.7,-720.15 323.9,-1423.26 325.7,-1430.28 l -58.6,-16.03 c -2,7.04 -193.8,712.32 -326.9,1435.01 -183.7,997.6 -172.2,1530 35.4,1627.7 161.1,75.8 257.2,19.7 309.5,-40.7 7.3,-8.5 14.1,-17.5 20.5,-27 71.8,30.5 164.6,50.3 284.7,50.3 h 59.1 c 120.1,0 212.9,-19.8 284.6,-50.3 6.5,9.5 13.3,18.5 20.6,27 52.3,60.4 148.4,116.5 309.4,40.7 207.6,-97.7 219.2,-630.1 35.5,-1627.7 -133.1,-722.69 -325,-1427.97 -326.9,-1435.01" /></g><g
         transform="scale(1.29562)"
         id="g324"><path
           id="path326"
           style="fill:#21111d;fill-opacity:1;fill-rule:nonzero;stroke:none"
           d="m 14001.2,8615.99 c -15.5,44.35 -22.5,60.58 -37.8,96.16 l -8.4,19.43 c -242.8,567.11 -685.4,1043.93 -689.8,1048.68 l -1.4,1.49 C 12900.2,10150.7 12700,10639 12700,11157 c 0,1080.4 879.1,1959.4 1959.5,1959.4 663.4,0 1276.6,-331.7 1640.5,-887.4 l -24.2,-15.8 c -358.5,547.5 -962.7,874.4 -1616.3,874.4 -1064.5,0 -1930.6,-866.1 -1930.6,-1930.6 0,-511.2 197.9,-993 557.2,-1356.73 l 18.8,-19.04 -1.4,-0.27 c 84.8,-94.67 460.7,-530.41 678.1,-1038.02 l 8.3,-19.38 c 15.6,-36.21 22.7,-52.74 38.5,-98.04 l -27.2,-9.53" /></g><g
         transform="scale(1.10585)"
         id="g328"><path
           id="path330"
           style="fill:#21111d;fill-opacity:1;fill-rule:nonzero;stroke:none"
           d="m 15583.6,14123.6 -32.4,9.4 c 1.6,5.7 170.1,566.5 737,777.4 l 11.8,-31.6 c -550.6,-204.9 -714.7,-749.7 -716.4,-755.2" /></g><g
         transform="scale(1.11294)"
         id="g332"><path
           id="path334"
           style="fill:#21111d;fill-opacity:1;fill-rule:nonzero;stroke:none"
           d="m 15588.2,13832.2 -32.2,9.3 c 1.6,5.6 169,562.9 732.3,772.5 l 11.7,-31.5 c -547,-203.5 -710.2,-744.9 -711.8,-750.3" /></g><g
         transform="scale(1.21672)"
         id="g336"><path
           id="path338"
           style="fill:#21111d;fill-opacity:1;fill-rule:nonzero;stroke:none"
           d="m 15684.8,8025.4 h -150.5 c -347.7,0 -630.5,282.88 -630.5,630.56 v 548.56 H 16300 v -30.73 h -1365.6 v -517.83 c 0,-330.74 269.1,-599.82 599.9,-599.82 h 150.5 c 158.4,0 307.7,61.15 420.7,172.2 l 21.5,-21.88 c -118.7,-116.79 -275.7,-181.06 -442.2,-181.06" /></g><g
         transform="scale(1.16665)"
         id="g340"><path
           id="path342"
           style="fill:#21111d;fill-opacity:1;fill-rule:nonzero;stroke:none"
           d="m 16288.9,8125.91 c -312.1,0 -357.2,302.75 -357.7,305.84 l 31.9,4.37 c 1.5,-11.57 43.2,-284.84 336.2,-278.06 l 0.7,-32.06 c -3.8,0 -7.5,-0.09 -11.1,-0.09" /></g><g
         transform="scale(1.2958)"
         id="g344"><path
           id="path346"
           style="fill:#21111d;fill-opacity:1;fill-rule:nonzero;stroke:none"
           d="m 15991.1,10066.7 -17.2,23.2 c 256.7,190.4 297.1,508.4 297.5,511.6 l 28.6,-3.4 c -0.4,-3.3 -42,-333.3 -308.9,-531.4" /></g><g
         transform="scale(1.28488)"
         id="g348"><path
           id="path350"
           style="fill:#21111d;fill-opacity:1;fill-rule:nonzero;stroke:none"
           d="m 16069.7,10292 -17.3,23.4 c 188.6,140 218.4,373.8 218.7,376.2 l 28.9,-3.4 c -1.2,-10.1 -31.3,-248.5 -230.3,-396.2" /></g><g
         transform="scale(1.225)"
         id="g352"><path
           id="path354"
           style="fill:#21111d;fill-opacity:1;fill-rule:nonzero;stroke:none"
           d="m 14755.3,8852.85 -0.3,30.51 c 11.6,0.14 1168.1,15.12 1534.3,151.64 l 10.7,-28.6 c -371.2,-138.37 -1496.9,-152.99 -1544.7,-153.55" /></g><g
         transform="scale(1.22286)"
         id="g356"><path
           id="path358"
           style="fill:#21111d;fill-opacity:1;fill-rule:nonzero;stroke:none"
           d="m 14781.2,8610.14 -0.5,30.58 c 12.7,0.23 1269.8,25.15 1504.8,151.03 l 14.5,-26.94 c -241.5,-129.35 -1466.7,-153.7 -1518.8,-154.67" /></g><g
         transform="scale(1.22285)"
         id="g360"><path
           id="path362"
           style="fill:#21111d;fill-opacity:1;fill-rule:nonzero;stroke:none"
           d="m 14844.5,8345.3 -0.2,30.57 c 11.4,0.11 1139.5,11.99 1441.7,168.15 l 14,-27.17 c -308.6,-159.48 -1408.8,-171.13 -1455.5,-171.55" /></g><path
         id="path364"
         style="fill:#fecc86;fill-opacity:1;fill-rule:nonzero;stroke:none"
         d="m 15830.6,14851.9 c -1.6,0 -3.2,0 -4.8,0.2 l -891.8,75.9 c -30.8,2.6 -53.7,29.7 -51.1,60.6 2.6,30.8 29.8,53.7 60.6,51.1 l 891.8,-75.9 c 30.9,-2.6 53.8,-29.7 51.1,-60.6 -2.4,-29.3 -27,-51.3 -55.8,-51.3" /><g
         transform="scale(1.03668)"
         id="g366"><path
           id="path368"
           style="fill:#fecc86;fill-opacity:1;fill-rule:nonzero;stroke:none"
           d="m 15715.4,15696.8 c -10.5,0 -21.1,3.1 -30.4,9.5 l -712.6,487.5 c -24.7,16.9 -31,50.6 -14.1,75.2 16.9,24.7 50.6,31 75.3,14.1 l 712.4,-487.5 c 24.7,-16.9 31,-50.5 14.1,-75.2 -10.5,-15.3 -27.4,-23.6 -44.7,-23.6" /></g><g
         transform="scale(1.11906)"
         id="g370"><path
           id="path372"
           style="fill:#fecc86;fill-opacity:1;fill-rule:nonzero;stroke:none"
           d="m 15751.5,15452 c -19.7,0 -38.5,11.8 -46.4,31.3 l -301,741 c -10.4,25.6 1.9,54.9 27.5,65.3 25.6,10.4 54.9,-1.9 65.4,-27.6 l 300.9,-741 c 10.5,-25.6 -1.9,-54.8 -27.5,-65.3 -6.2,-2.5 -12.6,-3.7 -18.9,-3.7" /></g><g
         transform="scale(1.41484)"
         id="g374"><path
           id="path376"
           style="fill:#fecc86;fill-opacity:1;fill-rule:nonzero;stroke:none"
           d="m 15627.8,10383 c -20.7,0 -38.2,16.1 -39.5,37 -1.5,21.9 15.1,40.7 36.9,42.2 l 631.2,41.7 c 21.7,1.4 40.7,-15.1 42.2,-37 1.4,-21.8 -15.1,-40.7 -37,-42.1 l -631.2,-41.7 c -0.9,-0.1 -1.8,-0.1 -2.6,-0.1" /></g><g
         transform="scale(1.37966)"
         id="g378"><path
           id="path380"
           style="fill:#fecc86;fill-opacity:1;fill-rule:nonzero;stroke:none"
           d="m 15711.5,11683.7 c -13.2,0 -26.1,6.5 -34,18.3 -12.3,18.8 -7.1,44 11.7,56.3 l 542.2,356.2 c 18.7,12.3 44,7.1 56.3,-11.7 12.3,-18.8 7.1,-44 -11.7,-56.3 l -542.2,-356.1 c -6.8,-4.5 -14.6,-6.7 -22.3,-6.7" /></g><g
         transform="scale(1.28528)"
         id="g382"><path
           id="path384"
           style="fill:#fecc86;fill-opacity:1;fill-rule:nonzero;stroke:none"
           d="m 15976.1,13456.2 c -5.8,0 -11.6,1.1 -17.2,3.6 -22.1,9.4 -32.4,35.1 -22.9,57.2 l 274.3,640.1 c 9.5,22.2 35.2,32.4 57.3,22.9 22.1,-9.5 32.4,-35.1 22.9,-57.3 l -274.2,-640 c -7.1,-16.6 -23.3,-26.5 -40.2,-26.5" /></g><g
         transform="scale(1.17586)"
         id="g386"><path
           id="path388"
           style="fill:#fecc86;fill-opacity:1;fill-rule:nonzero;stroke:none"
           d="m 16240.2,15078.8 h -0.8 c -26.2,0.4 -47.3,22.1 -46.9,48.4 l 11.7,761.1 c 0.5,26.1 21.7,47 47.8,47 h 0.6 c 26.4,-0.5 47.4,-22.1 47.1,-48.5 l -11.8,-761 c -0.4,-26.1 -21.7,-47 -47.7,-47" /></g><g
         transform="scale(1.27441)"
         id="g390"><path
           id="path392"
           style="fill:#f8e6c2;fill-opacity:1;fill-rule:nonzero;stroke:none"
           d="m 16076.4,12232 c -105,0 -244,45.7 -378.3,132.2 -224.8,144.9 -351.1,349.5 -281.9,456.9 27.9,43.4 83.4,64.3 154.4,64.3 105.1,0 244.1,-45.7 378.3,-132.2 224.9,-145 351.1,-349.6 281.9,-457 -27.9,-43.3 -83.4,-64.2 -154.4,-64.2" /></g><path
         id="path394"
         style="fill:#21111d;fill-opacity:1;fill-rule:nonzero;stroke:none"
         d="m 2581.9,9729.7 c -13.02,0 -25.06,8.5 -29.03,21.6 -0.66,2.2 -16.62,55.2 -38.38,148.8 -3.8,16.4 6.37,32.7 22.7,36.5 16.2,3.8 32.62,-6.4 36.43,-22.7 21.25,-91.5 37.2,-144.5 37.35,-145 4.86,-16 -4.23,-33 -20.26,-37.8 -2.94,-0.9 -5.89,-1.4 -8.81,-1.4" /><path
         id="path396"
         style="fill:#21111d;fill-opacity:1;fill-rule:nonzero;stroke:none"
         d="m 7017.55,14586.6 c -15.19,0 -28.3,11.3 -30.1,26.8 -1.94,16.6 9.99,31.7 26.64,33.7 101.97,11.8 206.41,20.6 310.44,26.1 16.57,0.9 31.02,-12 31.9,-28.8 0.87,-16.7 -11.98,-31 -28.73,-31.8 -102.73,-5.4 -205.88,-14.1 -306.59,-25.8 -1.2,-0.2 -2.38,-0.2 -3.56,-0.2 z m -607.86,-114.7 c -13.38,0 -25.64,8.9 -29.28,22.5 -4.38,16.2 5.21,32.8 21.4,37.2 97.56,26.3 199.88,49.5 304.14,69 16.5,3.1 32.33,-7.8 35.41,-24.3 3.08,-16.5 -7.78,-32.3 -24.27,-35.4 -102.69,-19.2 -203.46,-42 -299.49,-67.9 -2.63,-0.7 -5.3,-1.1 -7.91,-1.1 z m -578.77,-216.7 c -11.13,0 -21.83,6.1 -27.16,16.7 -7.52,15 -1.47,33.2 13.51,40.7 90.11,45.3 186.68,87.1 287,124.3 15.69,5.9 33.2,-2.1 39.02,-17.9 5.84,-15.7 -2.18,-33.2 -17.89,-39 -98.26,-36.5 -192.77,-77.4 -280.89,-121.6 -4.37,-2.2 -9.03,-3.2 -13.59,-3.2 z M 5321.73,13907 c -8.14,0 -16.24,3.3 -22.23,9.7 -11.41,12.3 -10.72,31.5 1.55,42.9 74.73,69.5 157.41,135.1 245.78,195 13.9,9.4 32.75,5.8 42.16,-8 9.41,-13.9 5.8,-32.8 -8.08,-42.2 -85.81,-58.2 -166.06,-121.9 -238.5,-189.2 -5.86,-5.5 -13.27,-8.2 -20.68,-8.2 z m -862.5,-426 c -15.22,0 -28.33,11.4 -30.11,26.9 -1.9,16.7 10.06,31.7 26.72,33.6 108.4,12.4 214.97,14.1 314.98,5.1 16.7,-1.5 29,-16.3 27.51,-33 -1.5,-16.7 -15.89,-29.1 -32.96,-27.5 -95.92,8.7 -198.31,7 -302.65,-4.9 -1.16,-0.1 -2.33,-0.2 -3.49,-0.2 z m 470.75,-50.8 c -5.53,0 -11.12,1.5 -16.14,4.7 -14.18,8.9 -18.45,27.6 -9.51,41.8 54.84,87.2 116.49,172.6 183.19,253.8 10.66,12.9 29.77,14.8 42.73,4.2 12.95,-10.7 14.82,-29.8 4.19,-42.8 -65.1,-79.2 -125.25,-162.5 -178.75,-247.5 -5.76,-9.2 -15.62,-14.2 -25.71,-14.2 z m -1064.36,-115.4 c -11.66,0 -22.77,6.8 -27.78,18.1 -6.77,15.3 0.16,33.3 15.49,40 97.27,43 196.4,79 294.63,106.9 16.16,4.5 32.91,-4.8 37.49,-20.9 4.58,-16.2 -4.77,-32.9 -20.89,-37.5 -95.53,-27.2 -192,-62.1 -286.69,-104 -3.99,-1.7 -8.15,-2.6 -12.25,-2.6 z M 5336.7,13267 c -6.8,0 -13.65,2.3 -19.31,6.9 -75.11,62 -162.14,111.7 -258.65,147.6 -15.71,5.8 -23.71,23.3 -17.86,39 5.82,15.8 23.37,23.7 39.02,17.9 102.89,-38.3 195.78,-91.3 276.14,-157.6 12.92,-10.7 14.75,-29.9 4.08,-42.8 -6.01,-7.2 -14.68,-11 -23.42,-11 z m -1999.87,-270.6 c -9.01,0 -17.91,3.9 -23.91,11.6 -10.34,13.2 -8.01,32.3 5.18,42.6 82.18,64.4 168.83,124.2 257.56,177.7 14.35,8.7 33.01,4 41.68,-10.3 8.66,-14.4 4.05,-33 -10.31,-41.7 -86.63,-52.2 -171.24,-110.6 -251.49,-173.5 -5.56,-4.3 -12.16,-6.4 -18.71,-6.4 z m 1339.08,-128.2 c -2.77,0 -5.59,0.4 -8.37,1.2 -16.13,4.6 -25.44,21.4 -20.83,37.5 28.25,98.5 64.86,197.5 108.82,294.2 6.93,15.2 24.94,21.9 40.19,15 15.25,-6.9 22.01,-24.9 15.06,-40.2 -42.73,-93.9 -78.28,-190.1 -105.7,-285.7 -3.83,-13.3 -15.96,-22 -29.17,-22 z m 980.23,-119.9 c -13.29,0 -25.49,8.8 -29.23,22.2 -27.34,98.2 -66.78,191.4 -117.21,276.8 -8.52,14.4 -3.72,33.1 10.72,41.6 14.43,8.5 33.03,3.7 41.56,-10.7 53.14,-90 94.65,-188.1 123.42,-291.4 4.49,-16.2 -4.96,-32.9 -21.11,-37.4 -2.73,-0.8 -5.45,-1.1 -8.15,-1.1 z m -2750.82,-192.6 c -6.21,0 -12.49,1.9 -17.89,5.9 -13.53,9.9 -16.48,28.8 -6.58,42.4 61.64,84.2 129.98,164.6 203.11,238.8 11.74,11.9 30.98,12 42.92,0.3 11.94,-11.8 12.08,-31 0.3,-43 -71.05,-72 -137.44,-150.1 -197.34,-232 -5.94,-8.1 -15.17,-12.4 -24.52,-12.4 z m 1708.82,-299.4 c -15.22,0 -28.35,11.5 -30.12,27 -5.35,47.2 -8.06,96.7 -8.06,147.3 0,54.6 3.16,111.2 9.4,168.2 1.84,16.6 16.94,28.5 33.48,26.8 16.65,-1.8 28.69,-16.8 26.87,-33.4 -6,-54.8 -9.04,-109.2 -9.04,-161.6 0,-48.3 2.57,-95.6 7.67,-140.5 1.89,-16.7 -10.08,-31.7 -26.73,-33.6 -1.17,-0.1 -2.33,-0.2 -3.47,-0.2 z m 1040.12,-118.1 c -3.19,0 -6.43,0.5 -9.64,1.6 -15.9,5.3 -24.46,22.5 -19.14,38.4 29.21,87.2 44.01,183.7 44.01,286.7 l -0.03,8.1 c -0.08,16.8 13.43,30.4 30.19,30.5 h 0.16 c 16.69,0 30.27,-13.5 30.36,-30.2 l 0.03,-8.4 c 0,-109.6 -15.87,-212.5 -47.16,-306 -4.26,-12.7 -16.08,-20.7 -28.78,-20.7 z M 2614.06,12012 c -3.55,0 -7.15,0.6 -10.68,1.9 -15.69,6 -23.62,23.5 -17.73,39.2 37.28,99.1 80.59,195.1 128.72,285.4 7.87,14.8 26.26,20.4 41.07,12.5 14.79,-7.9 20.38,-26.3 12.49,-41.1 -46.89,-88 -89.1,-181.6 -125.45,-278.2 -4.58,-12.2 -16.14,-19.7 -28.42,-19.7 z m 2301.59,-260.6 c -3.39,0 -6.85,0.6 -10.23,1.8 -96.36,34.5 -177.58,111.7 -234.87,223.4 -7.66,14.9 -1.77,33.2 13.14,40.8 14.93,7.7 33.21,1.8 40.86,-13.1 50.12,-97.7 119.74,-164.7 201.32,-193.9 15.79,-5.7 24,-23 18.35,-38.8 -4.43,-12.4 -16.11,-20.2 -28.57,-20.2 z m 306.12,-11.6 c -14.27,0 -26.99,10.1 -29.78,24.6 -3.17,16.5 7.62,32.4 24.07,35.6 100.05,19.2 186.47,62.8 256.88,129.7 12.14,11.6 31.35,11.1 42.91,-1.1 11.54,-12.2 11.04,-31.4 -1.11,-42.9 -78.95,-75 -175.58,-123.9 -287.21,-145.3 -1.94,-0.4 -3.87,-0.6 -5.76,-0.6 z m -2758.31,-326.5 c -1.45,0 -2.91,0.1 -4.37,0.3 -16.59,2.4 -28.1,17.8 -25.72,34.4 15.14,105 35.22,208.2 59.7,306.4 4.05,16.3 20.53,26.2 36.78,22.2 16.26,-4.1 26.18,-20.6 22.12,-36.8 -23.98,-96.3 -43.68,-197.4 -58.51,-300.5 -2.18,-15.1 -15.16,-26 -30,-26 z m -35.1,-617.2 c -16.45,0 -29.95,13.1 -30.32,29.6 -0.73,31.7 -1.08,63.5 -1.08,94.6 0,73 1.99,146.1 5.9,217.1 0.92,16.8 14.86,29.6 31.98,28.7 16.73,-0.9 29.55,-15.3 28.63,-32 -3.85,-69.9 -5.8,-141.9 -5.8,-213.8 0,-30.6 0.35,-62 1.06,-93.2 0.37,-16.7 -12.9,-30.7 -29.67,-31 z m 56.59,-615.8 c -14.66,0 -27.55,10.6 -29.93,25.6 -16.32,102.4 -29.43,206.3 -38.94,308.9 -1.56,16.7 10.73,31.5 27.42,33 16.73,1.5 31.49,-10.7 33.01,-27.4 9.4,-101.3 22.34,-203.9 38.45,-305 2.65,-16.5 -8.64,-32.1 -25.19,-34.7 -1.62,-0.3 -3.22,-0.4 -4.82,-0.4" /><path
         id="path398"
         style="fill:#21111d;fill-opacity:1;fill-rule:nonzero;stroke:none"
         d="m 7789.08,14613.1 -2.31,0.1 c -0.55,0.1 -55.94,4.2 -149.78,5.5 -16.75,0.2 -30.14,14 -29.91,30.8 0.24,16.6 13.79,29.9 30.34,29.9 h 0.46 c 95.9,-1.4 151.15,-5.5 153.47,-5.7 16.7,-1.2 29.22,-15.8 27.96,-32.5 -1.19,-15.9 -14.51,-28.1 -30.23,-28.1" /><path
         id="path400"
         style="fill:#7fc6a6;fill-opacity:1;fill-rule:nonzero;stroke:none"
         d="m 8207.27,14334.7 171.42,196.4 c 0,0 850.36,92.2 862.25,98.2 11.89,6 448.99,225.4 448.99,225.4 l -549.34,31.9 -897.99,-129.3 -35.33,-422.6" /><path
         id="path402"
         style="fill:#b9edd6;fill-opacity:1;fill-rule:nonzero;stroke:none"
         d="m 8039.12,15196.8 1650.81,-342.1 -1447.33,-97.4 z" /><path
         id="path404"
         style="fill:#b9edd6;fill-opacity:1;fill-rule:nonzero;stroke:none"
         d="m 8378.69,14531.1 213.44,-468 1097.8,791.6 z" /><g
         transform="scale(1.46712)"
         id="g406"><path
           id="path408"
           style="fill:#ffffff;fill-opacity:1;fill-rule:nonzero;stroke:none"
           d="m 11981.7,2010.74 c 0,0 190,-478.15 30.6,-839.81 l 3653.4,-30.6 337.2,30.6 297.1,184.1 v 281.78 l -82.6,232.97 -269.7,140.96 h -3966" /></g><g
         transform="scale(1.47271)"
         id="g410"><path
           id="path412"
           style="fill:#61a3c5;fill-opacity:1;fill-rule:nonzero;stroke:none"
           d="m 15776.8,1089.63 h -3932.1 c -25.7,0 -46.4,20.71 -46.4,46.37 0,25.6 20.7,46.31 46.4,46.31 h 3932.1 c 237.4,0 430.4,179.2 430.4,399.47 0,220.21 -193,399.4 -430.4,399.4 h -3932.1 c -25.7,0 -46.4,20.78 -46.4,46.38 0,25.6 20.7,46.38 46.4,46.38 h 3932.1 c 288.5,0 523.2,-220.82 523.2,-492.16 0,-271.4 -234.7,-492.15 -523.2,-492.15" /></g><g
         transform="scale(1.25855)"
         id="g414"><path
           id="path416"
           style="fill:#aac9f8;fill-opacity:1;fill-rule:nonzero;stroke:none"
           d="m 16287.9,1838.87 h -2258 c -6.7,0 -12.1,5.4 -12.1,12.08 0,6.67 5.4,11.99 12.1,11.99 h 2258 c 6.7,0 12.1,-5.32 12.1,-11.99 0,-6.68 -5.4,-12.08 -12.1,-12.08" /></g><g
         transform="scale(1.45248)"
         id="g418"><path
           id="path420"
           style="fill:#aac9f8;fill-opacity:1;fill-rule:nonzero;stroke:none"
           d="m 16289.5,1593.34 h -1900.8 c -5.8,0 -10.4,4.68 -10.4,10.46 0,5.79 4.6,10.4 10.4,10.4 h 1900.8 c 5.8,0 10.5,-4.61 10.5,-10.4 0,-5.78 -4.7,-10.46 -10.5,-10.46" /></g><g
         transform="scale(1.44793)"
         id="g422"><path
           id="path424"
           style="fill:#aac9f8;fill-opacity:1;fill-rule:nonzero;stroke:none"
           d="m 16289.5,1410.56 h -978.4 c -5.8,0 -10.5,4.7 -10.5,10.5 0,5.8 4.7,10.43 10.5,10.43 h 978.4 c 5.8,0 10.5,-4.63 10.5,-10.43 0,-5.8 -4.7,-10.5 -10.5,-10.5" /></g><g
         transform="scale(1.34828)"
         id="g426"><path
           id="path428"
           style="fill:#aac9f8;fill-opacity:1;fill-rule:nonzero;stroke:none"
           d="m 16288.7,1514.83 h -3192.5 c -6.2,0 -11.3,5.04 -11.3,11.27 0,6.23 5.1,11.2 11.3,11.2 h 3192.5 c 6.3,0 11.3,-4.97 11.3,-11.2 0,-6.23 -5,-11.27 -11.3,-11.27" /></g><g
         transform="scale(1.46368)"
         id="g430"><path
           id="path432"
           style="fill:#ffffff;fill-opacity:1;fill-rule:nonzero;stroke:none"
           d="m 16300,2996.83 c 0,0 -190.5,-479.27 -30.7,-841.78 l -3662,-30.75 -338,30.75 -297.8,184.53 v 282.44 l 82.8,233.52 270.4,141.29 H 16300" /></g><g
         transform="scale(1.47615)"
         id="g434"><path
           id="path436"
           style="fill:#f75553;fill-opacity:1;fill-rule:nonzero;stroke:none"
           d="m 12330.7,2060.09 h 3923 c 25.6,0 46.3,20.73 46.3,46.27 0,25.61 -20.7,46.27 -46.3,46.27 h -3923 c -236.8,0 -429.4,178.78 -429.4,398.54 0,219.69 192.6,398.47 429.4,398.47 h 3923 c 25.6,0 46.3,20.66 46.3,46.27 0,25.54 -20.7,46.27 -46.3,46.27 h -3923 c -287.8,0 -521.9,-220.31 -521.9,-491.01 0,-270.77 234.1,-491.08 521.9,-491.08" /></g><g
         transform="scale(1.45979)"
         id="g438"><path
           id="path440"
           style="fill:#aac9f8;fill-opacity:1;fill-rule:nonzero;stroke:none"
           d="m 16289.6,2569.35 h -1946.7 c -5.8,0 -10.4,4.66 -10.4,10.35 0,5.75 4.6,10.41 10.4,10.41 h 1946.7 c 5.7,0 10.4,-4.66 10.4,-10.41 0,-5.69 -4.7,-10.35 -10.4,-10.35" /></g><g
         transform="scale(1.26088)"
         id="g442"><path
           id="path444"
           style="fill:#aac9f8;fill-opacity:1;fill-rule:nonzero;stroke:none"
           d="m 16288,2974.66 h -2189.7 c -6.7,0 -12.1,5.39 -12.1,11.98 0,6.66 5.4,12.05 12.1,12.05 H 16288 c 6.6,0 12,-5.39 12,-12.05 0,-6.59 -5.4,-11.98 -12,-11.98" /></g><g
         transform="scale(1.18296)"
         id="g446"><path
           id="path448"
           style="fill:#aac9f8;fill-opacity:1;fill-rule:nonzero;stroke:none"
           d="m 16287.2,2940.75 h -1197.6 c -7.1,0 -12.8,5.75 -12.8,12.85 0,7.02 5.7,12.77 12.8,12.77 h 1197.6 c 7.1,0 12.8,-5.75 12.8,-12.77 0,-7.1 -5.7,-12.85 -12.8,-12.85" /></g><g
         transform="scale(1.45979)"
         id="g450"><path
           id="path452"
           style="fill:#aac9f8;fill-opacity:1;fill-rule:nonzero;stroke:none"
           d="m 16289.6,2383.09 h -2948.7 c -5.7,0 -10.4,4.66 -10.4,10.41 0,5.69 4.7,10.35 10.4,10.35 h 2948.7 c 5.7,0 10.4,-4.66 10.4,-10.35 0,-5.75 -4.7,-10.41 -10.4,-10.41" /></g><g
         transform="scale(1.49469)"
         id="g454"><path
           id="path456"
           style="fill:#ffffff;fill-opacity:1;fill-rule:nonzero;stroke:none"
           d="m 12366.2,3839.72 c 0,0 173.1,-435.54 27.8,-764.97 l 3328.2,-27.97 307.1,27.97 270.7,167.72 v 256.64 l -75.3,212.22 -245.6,128.39 h -3612.9" /></g><g
         transform="scale(1.49987)"
         id="g458"><path
           id="path460"
           style="fill:#258d8c;fill-opacity:1;fill-rule:nonzero;stroke:none"
           d="M 15823.2,2994.06 H 12240 c -23.3,0 -42.3,18.87 -42.3,42.2 0,23.34 19,42.27 42.3,42.27 h 3583.2 c 216.4,0 392.3,163.28 392.3,363.97 0,200.74 -175.9,363.96 -392.3,363.96 H 12240 c -23.3,0 -42.3,18.94 -42.3,42.27 0,23.34 19,42.27 42.3,42.27 h 3583.2 c 262.9,0 476.8,-201.22 476.8,-448.5 0,-247.29 -213.9,-448.44 -476.8,-448.44" /></g><g
         transform="scale(1.30118)"
         id="g462"><path
           id="path464"
           style="fill:#aac9f8;fill-opacity:1;fill-rule:nonzero;stroke:none"
           d="m 16288.3,3956.47 h -2027 c -6.4,0 -11.6,5.23 -11.6,11.69 0,6.45 5.2,11.68 11.6,11.68 h 2027 c 6.5,0 11.7,-5.23 11.7,-11.68 0,-6.46 -5.2,-11.69 -11.7,-11.69" /></g><g
         transform="scale(1.48117)"
         id="g466"><path
           id="path468"
           style="fill:#aac9f8;fill-opacity:1;fill-rule:nonzero;stroke:none"
           d="m 16289.7,3475.69 h -1729.9 c -5.6,0 -10.2,4.6 -10.2,10.27 0,5.67 4.6,10.26 10.2,10.26 h 1729.9 c 5.7,0 10.3,-4.59 10.3,-10.26 0,-5.67 -4.6,-10.27 -10.3,-10.27" /></g><g
         transform="scale(1.47694)"
         id="g470"><path
           id="path472"
           style="fill:#aac9f8;fill-opacity:1;fill-rule:nonzero;stroke:none"
           d="m 16289.7,3314.82 h -890.1 c -5.7,0 -10.3,4.6 -10.3,10.29 0,5.68 4.6,10.29 10.3,10.29 h 890.1 c 5.7,0 10.3,-4.61 10.3,-10.29 0,-5.69 -4.6,-10.29 -10.3,-10.29" /></g><g
         transform="scale(1.47694)"
         id="g474"><path
           id="path476"
           style="fill:#aac9f8;fill-opacity:1;fill-rule:nonzero;stroke:none"
           d="m 16289.7,3656.6 h -3725.5 c -5.6,0 -10.2,4.61 -10.2,10.29 0,5.69 4.6,10.3 10.2,10.3 h 3725.5 c 5.7,0 10.3,-4.61 10.3,-10.3 0,-5.68 -4.6,-10.29 -10.3,-10.29" /></g><g
         transform="scale(1.47708)"
         id="g478"><path
           id="path480"
           style="fill:#21111d;fill-opacity:1;fill-rule:nonzero;stroke:none"
           d="M 16243.5,2048.57 H 12323 c -293.3,0 -532,224.7 -532,500.92 0,276.29 238.7,500.99 532,500.99 h 3920.5 c 31.2,0 56.5,-25.32 56.5,-56.46 0,-31.21 -25.3,-56.53 -56.5,-56.53 -5.6,0 -10.3,4.6 -10.3,10.29 0,5.68 4.7,10.22 10.3,10.22 19.8,0 36,16.18 36,36.02 0,19.77 -16.2,35.95 -36,35.95 H 12323 c -282,0 -511.4,-215.56 -511.4,-480.48 0,-264.85 229.4,-480.41 511.4,-480.41 h 3920.5 c 19.8,0 36,16.12 36,35.95 0,19.84 -16.2,36.02 -36,36.02 -5.6,0 -10.3,4.54 -10.3,10.22 0,5.69 4.7,10.29 10.3,10.29 31.2,0 56.5,-25.32 56.5,-56.53 0,-31.14 -25.3,-56.46 -56.5,-56.46" /></g><g
         transform="scale(1.5008)"
         id="g482"><path
           id="path484"
           style="fill:#21111d;fill-opacity:1;fill-rule:nonzero;stroke:none"
           d="m 15813.4,2982.07 h -3581 c -28.9,0 -52.3,23.45 -52.3,52.3 0,28.92 23.4,52.38 52.3,52.38 5.6,0 10.1,-4.53 10.1,-10.13 0,-5.6 -4.5,-10.13 -10.1,-10.13 -17.7,0 -32.1,-14.39 -32.1,-32.12 0,-17.65 14.4,-32.11 32.1,-32.11 h 3581 c 257.2,0 466.4,196.56 466.4,438.1 0,241.6 -209.2,438.1 -466.4,438.1 h -3581 c -17.7,0 -32.1,-14.4 -32.1,-32.12 0,-17.73 14.4,-32.12 32.1,-32.12 5.6,0 10.1,-4.53 10.1,-10.13 0,-5.59 -4.5,-10.06 -10.1,-10.06 -28.9,0 -52.3,23.46 -52.3,52.31 0,28.85 23.4,52.37 52.3,52.37 h 3581 c 268.3,0 486.6,-205.62 486.6,-458.35 0,-252.67 -218.3,-458.29 -486.6,-458.29" /></g><g
         transform="scale(1.47364)"
         id="g486"><path
           id="path488"
           style="fill:#21111d;fill-opacity:1;fill-rule:nonzero;stroke:none"
           d="m 15766.8,1078.62 h -3929.6 c -31.3,0 -56.7,25.38 -56.7,56.67 0,31.21 25.4,56.59 56.7,56.59 5.7,0 10.2,-4.61 10.2,-10.31 0,-5.64 -4.5,-10.25 -10.2,-10.25 -19.9,0 -36.1,-16.22 -36.1,-36.03 0,-19.89 16.2,-36.11 36.1,-36.11 h 3929.6 c 282.7,0 512.6,216.07 512.6,481.6 0,265.54 -229.9,481.53 -512.6,481.53 h -3929.6 c -19.9,0 -36.1,-16.15 -36.1,-36.03 0,-19.88 16.2,-36.03 36.1,-36.03 5.7,0 10.2,-4.62 10.2,-10.32 0,-5.7 -4.5,-10.31 -10.2,-10.31 -31.3,0 -56.7,25.44 -56.7,56.66 0,31.21 25.4,56.66 56.7,56.66 h 3929.6 c 294.1,0 533.2,-225.29 533.2,-502.16 0,-276.86 -239.1,-502.16 -533.2,-502.16" /></g><g
         transform="scale(1.21195)"
         id="g490"><path
           id="path492"
           style="fill:#f75553;fill-opacity:1;fill-rule:nonzero;stroke:none"
           d="m 15832.4,2146.54 c 0,0 -150.5,-374.85 -63.8,-650.85 l 122.3,188.95 c 0,0 83.5,-100.17 134.7,-188.95 0,0 93.4,616.36 274.4,650.85 h -467.6" /></g><g
         transform="scale(1.42684)"
         id="g494"><path
           id="path496"
           style="fill:#7fc6a6;fill-opacity:1;fill-rule:nonzero;stroke:none"
           d="m 16172.2,2829.96 c 0,0 127.8,-318.4 54.1,-552.83 l -103.8,160.49 c 0,0 -71,-85.08 -114.4,-160.49 0,0 -79.3,523.53 -233.1,552.83 h 397.2" /></g><g
         transform="scale(1.22646)"
         id="g498"><path
           id="path500"
           style="fill:#4cb7d8;fill-opacity:1;fill-rule:nonzero;stroke:none"
           d="m 15837.9,4004.21 c 0,0 -148.7,-370.5 -63,-643.24 l 120.8,186.8 c 0,0 82.6,-99.07 133.1,-186.8 0,0 92.3,609.15 271.2,643.24 h -462.1" /></g><g
         transform="scale(1.44793)"
         id="g502"><path
           id="path504"
           style="fill:#aac9f8;fill-opacity:1;fill-rule:nonzero;stroke:none"
           d="m 16289.5,1786.2 h -4094.7 c -5.8,0 -10.5,4.7 -10.5,10.5 0,5.8 4.7,10.5 10.5,10.5 h 4094.7 c 5.8,0 10.5,-4.7 10.5,-10.5 0,-5.8 -4.7,-10.5 -10.5,-10.5" /></g><g
         transform="scale(1.45979)"
         id="g506"><path
           id="path508"
           style="fill:#aac9f8;fill-opacity:1;fill-rule:nonzero;stroke:none"
           d="m 16289.6,2755.68 h -4061.4 c -5.8,0 -10.4,4.66 -10.4,10.41 0,5.76 4.6,10.42 10.4,10.42 h 4061.4 c 5.7,0 10.4,-4.66 10.4,-10.42 0,-5.75 -4.7,-10.41 -10.4,-10.41" /></g><g
         transform="scale(1.38445)"
         id="g510"><path
           id="path512"
           style="fill:#aac9f8;fill-opacity:1;fill-rule:nonzero;stroke:none"
           d="m 16289.1,3536.27 h -2885.5 c -6,0 -11,4.91 -11,10.98 0,6.06 5,10.97 11,10.97 h 2885.5 c 6.1,0 10.9,-4.91 10.9,-10.97 0,-6.07 -4.8,-10.98 -10.9,-10.98" /></g><g
         transform="scale(1.33256)"
         id="g514"><path
           id="path516"
           style="fill:#fe9f73;fill-opacity:1;fill-rule:nonzero;stroke:none"
           d="m 15947.1,2934.51 158.4,-89.01 189.4,186.26 5.1,30.17 -46.4,338.97 -368.6,-68.59 62.1,-397.8" /></g><g
         transform="scale(1.3361)"
         id="g518"><path
           id="path520"
           style="fill:#f75553;fill-opacity:1;fill-rule:nonzero;stroke:none"
           d="m 16174.8,2828.09 -506.8,-69.01 c -4.7,0.07 -8.5,0.3 -11.4,0.75 -49.7,8.16 -38.2,40.56 -38.2,40.56 l 222.1,183.67 1.7,22.68 c 2.6,36.3 44.5,54.71 80.4,35.33 l 93.4,-50.45 c 0,0 219.4,-3.14 240.8,62.2 l 19.8,-159.35 c 0,0 23.4,-48.5 -101.8,-66.38" /></g><g
         transform="scale(1.27888)"
         id="g522"><path
           id="path524"
           style="fill:#fe9f73;fill-opacity:1;fill-rule:nonzero;stroke:none"
           d="m 15932.3,3034.99 165,-92.74 197.4,194.16 5.3,31.43 -48.3,353.2 -384.1,-71.55 64.7,-414.5" /></g><g
         transform="scale(1.28242)"
         id="g526"><path
           id="path528"
           style="fill:#f75553;fill-opacity:1;fill-rule:nonzero;stroke:none"
           d="m 16169.5,2923.92 -527.9,-71.9 c -5,0 -8.9,0.32 -11.9,0.78 -51.8,8.42 -39.8,42.27 -39.8,42.27 l 231.4,191.35 1.7,23.55 c 2.7,37.9 46.4,57.08 83.8,36.89 l 97.3,-52.56 c 0,0 228.7,-3.28 250.9,64.8 l 20.7,-166.09 c 0,0 24.3,-50.53 -106.2,-69.09" /></g><g
         transform="scale(1.43575)"
         id="g530"><path
           id="path532"
           style="fill:#49263e;fill-opacity:1;fill-rule:nonzero;stroke:none"
           d="m 15344.8,3986.54 c 0,0 588.2,-27.65 751.6,8.64 163.3,36.29 203.6,546.12 18.1,858.5 -185.5,312.38 -834.4,-646.69 -834.4,-646.69 l 64.7,-220.45" /></g><g
         transform="scale(1.35696)"
         id="g534"><path
           id="path536"
           style="fill:#3a1f33;fill-opacity:1;fill-rule:nonzero;stroke:none"
           d="m 15850.8,5019.22 c 0,0 -866.7,-134.86 -891.8,-235.3 -25.1,-100.52 -97.1,-1168.86 -43.3,-1624.66 0,0 330.2,-22.7 488.1,15.55 l 38.5,1111.38 260.6,29.92 597.1,717.78 -449.2,-14.67" /></g><g
         transform="scale(1.38306)"
         id="g538"><path
           id="path540"
           style="fill:#49263e;fill-opacity:1;fill-rule:nonzero;stroke:none"
           d="m 15965.5,4862.93 c 0,0 -658.5,-185.75 -683.2,-284.37 -24.6,-98.62 -94.8,-1034.09 -41.9,-1481.29 0,0 348.3,-19.88 503.2,17.65 l 41.8,1028.59 150.3,-5.21 364.3,640.97 -334.5,83.66" /></g><g
         transform="scale(1.45745)"
         id="g542"><path
           id="path544"
           style="fill:#febac7;fill-opacity:1;fill-rule:nonzero;stroke:none"
           d="m 15537.9,5805.28 c 0,0 276.2,-4.66 340.3,-42.53 64.3,-37.88 358.3,-522.36 421.8,-727.92 0,0 -166,-145.32 -379.8,-150.88 l -51.4,96.88 29.4,-198.36 -560.2,-166.11 c -190,-56.4 -393.2,-49.82 -579.2,18.8 l -58.2,21.47 c 0,0 0.9,942.75 169.3,1042.37 150.1,88.72 475,135.44 668,106.28" /></g><g
         transform="scale(1.38987)"
         id="g546"><path
           id="path548"
           style="fill:#fe9f73;fill-opacity:1;fill-rule:nonzero;stroke:none"
           d="m 15929.5,6573.27 v -279.88 c 0,0 -4,-94.61 78.7,-106.41 l -15.4,-126.27 c -5.7,-46.92 22.4,-91.81 67.4,-106.06 22,-6.98 48.3,-12.09 78.1,-12.09 94.6,0 145.9,70.95 153.8,106.42 7.9,35.47 -15.8,204.98 -15.8,204.98 l 2.9,83.32 -10.8,322.69 -338.9,-86.7" /></g><g
         transform="scale(1.37812)"
         id="g550"><path
           id="path552"
           style="fill:#fecc86;fill-opacity:1;fill-rule:nonzero;stroke:none"
           d="m 16295.6,6488.17 c 1,0 2,0.37 2.7,1.09 1.6,1.53 1.7,4.07 0.2,5.66 -0.6,0.58 -55.2,56.46 -105.2,16.26 -1.7,-1.38 -2,-3.92 -0.6,-5.66 1.4,-1.67 3.8,-1.96 5.6,-0.58 44.2,35.7 92.4,-13.43 94.4,-15.53 0.8,-0.8 1.9,-1.24 2.9,-1.24" /></g><g
         transform="scale(1.36427)"
         id="g554"><path
           id="path556"
           style="fill:#fecc86;fill-opacity:1;fill-rule:nonzero;stroke:none"
           d="m 16295.5,6578.17 c 1.1,0 2.2,0.44 3,1.39 1.5,1.61 1.4,4.18 -0.3,5.65 -1.6,1.39 -40,34.15 -64.2,13.41 -1.7,-1.47 -1.9,-4.03 -0.4,-5.72 1.4,-1.68 3.9,-1.83 5.6,-0.44 19,16.28 53.3,-13.04 53.7,-13.34 0.7,-0.66 1.7,-0.95 2.6,-0.95" /></g><g
         transform="scale(1.37297)"
         id="g558"><path
           id="path560"
           style="fill:#000000;fill-opacity:1;fill-rule:nonzero;stroke:none"
           d="m 16276,6496.43 c 0,-6.63 5.4,-12.02 12.1,-12.02 6.6,0 11.9,5.39 11.9,12.02 0,6.55 -5.3,11.95 -11.9,11.95 -6.7,0 -12.1,-5.4 -12.1,-11.95" /></g><g
         transform="scale(1.36225)"
         id="g562"><path
           id="path564"
           style="fill:#000000;fill-opacity:1;fill-rule:nonzero;stroke:none"
           d="m 16275.8,6559.58 c 0,-6.68 5.5,-12.04 12.2,-12.04 6.6,0 12,5.36 12,12.04 0,6.68 -5.4,12.04 -12,12.04 -6.7,0 -12.2,-5.36 -12.2,-12.04" /></g><g
         transform="scale(1.38801)"
         id="g566"><path
           id="path568"
           style="fill:#fecc86;fill-opacity:1;fill-rule:nonzero;stroke:none"
           d="m 16279.3,6653.36 -66.1,-93.59 c 0,0 -200.2,-77.74 -302.8,14.41 -102.7,92.07 -71.1,136.31 -41,182.42 14.8,22.69 85.6,69.02 172.5,30.47 47.4,-21.11 82.4,41.72 137.6,10.16 55.3,-31.55 120.5,-86.31 113.2,-107.92 -7.3,-21.62 -13.4,-35.95 -13.4,-35.95" /></g><g
         transform="scale(1.39799)"
         id="g570"><path
           id="path572"
           style="fill:#fecc86;fill-opacity:1;fill-rule:nonzero;stroke:none"
           d="m 16159,6645.02 c 0,0 90.5,4.37 115.7,-82.76 25.3,-87.05 -8.7,-132.69 -9.5,-158.66 -0.9,-25.96 16.7,-201 -106.2,-187.91 l -33.2,289.13 42.8,115.1 -9.6,25.1" /></g><g
         transform="scale(1.39138)"
         id="g574"><path
           id="path576"
           style="fill:#fe9f73;fill-opacity:1;fill-rule:nonzero;stroke:none"
           d="m 16158.3,6414.57 c 0,-39.17 31.7,-70.94 70.8,-70.94 39.2,0 70.9,31.77 70.9,70.94 0,39.09 -31.7,70.86 -70.9,70.86 -39.1,0 -70.8,-31.77 -70.8,-70.86" /></g><g
         transform="scale(1.38848)"
         id="g578"><path
           id="path580"
           style="fill:#f07162;fill-opacity:1;fill-rule:nonzero;stroke:none"
           d="m 16268.3,6384.4 c 14.8,0 24.6,11.09 27.9,22.18 3.8,13.11 -0.6,25.86 -11.3,32.48 -15.7,9.73 -29.9,3.46 -37.3,-1.29 3.1,8.06 8,13.9 14.4,17.43 14,7.7 31.4,2.08 31.5,2.08 1,-0.36 2.2,0.22 2.5,1.23 0.4,1.01 -0.2,2.16 -1.2,2.52 -0.8,0.22 -19.1,6.19 -34.7,-2.31 -8.9,-4.97 -15.1,-13.68 -18.1,-25.92 l -1.7,-6.84 5,4.96 c 0.8,0.72 17.6,17.15 37.6,4.76 11.1,-6.84 12,-19.37 9.5,-27.95 -2.6,-9 -10.5,-19.37 -24.1,-19.37 h -0.3 c -1.1,0 -2.1,-0.86 -2.1,-1.94 0,-1.09 0.9,-2.02 2,-2.02 h 0.4" /></g><g
         transform="scale(1.38136)"
         id="g582"><path
           id="path584"
           style="fill:#f07162;fill-opacity:1;fill-rule:nonzero;stroke:none"
           d="m 16300,6305.95 c 0,0 -5.6,-159.34 -204.6,-174.54 l 11.5,93.68 c 0,0 129,-25.92 193.1,80.86" /></g><g
         transform="scale(1.45291)"
         id="g586"><path
           id="path588"
           style="fill:#21111d;fill-opacity:1;fill-rule:nonzero;stroke:none"
           d="m 15926,4984.21 c 233.9,36.34 372.6,176.41 374,177.85 l -8.1,7.85 c -1.3,-1.38 -137.6,-138.76 -367.6,-174.55 l 1.7,-11.15" /></g><g
         transform="scale(1.33977)"
         id="g590"><path
           id="path592"
           style="fill:#21111d;fill-opacity:1;fill-rule:nonzero;stroke:none"
           d="m 16036.5,3184.81 c 158.9,0 215.6,23.96 218.3,25.15 l 3.5,1.49 41.7,1068.1 -65.6,-30.97 5.2,-11.05 47.3,22.31 -40.6,-1039.95 c -17.1,-5.97 -99.5,-29.71 -294.2,-20.75 l -0.6,-12.24 c 31.1,-1.42 59.4,-2.09 85,-2.09" /></g><g
         transform="scale(1.33217)"
         id="g594"><path
           id="path596"
           style="fill:#21111d;fill-opacity:1;fill-rule:nonzero;stroke:none"
           d="m 16277.9,3434.62 c 17,65.76 21.9,707.42 22.1,734.74 l -12.4,0.07 c 0,-6.68 -5,-667.4 -21.7,-731.73 l 12,-3.08" /></g><g
         transform="scale(1.29428)"
         id="g598"><path
           id="path600"
           style="fill:#21111d;fill-opacity:1;fill-rule:nonzero;stroke:none"
           d="m 16100.6,4468.91 c 83.4,26.96 198.2,31.06 199.4,31.06 l -0.5,12.75 c -1.1,-0.08 -117.7,-4.18 -202.9,-31.76 l 4,-12.05" /></g><g
         transform="scale(1.28608)"
         id="g602"><path
           id="path604"
           style="fill:#21111d;fill-opacity:1;fill-rule:nonzero;stroke:none"
           d="m 16014.2,3320.17 c 141.5,0 239.1,23.17 240.1,23.4 l 4.7,1.17 41,1185.69 -52.3,-42.22 8,-9.87 30.6,24.57 -39.7,-1147.99 c -21.6,-4.66 -116,-23.24 -244.8,-21.92 l -0.1,-12.75 c 4.2,-0.08 8.3,-0.08 12.5,-0.08" /></g><g
         transform="scale(1.27898)"
         id="g606"><path
           id="path608"
           style="fill:#21111d;fill-opacity:1;fill-rule:nonzero;stroke:none"
           d="m 16282.3,3552.61 c 17.7,103.52 0.8,804.08 0.1,833.87 l -12.9,-0.31 c 0.2,-7.27 17.6,-729.1 0.1,-831.37 l 12.7,-2.19" /></g><g
         transform="scale(1.36782)"
         id="g610"><path
           id="path612"
           style="fill:#5089a0;fill-opacity:1;fill-rule:nonzero;stroke:none"
           d="m 16048.4,4705.88 251.6,138.17 -324.8,60.17 73.2,-198.34" /></g><g
         transform="scale(1.36664)"
         id="g614"><path
           id="path616"
           style="fill:#4cb7d8;fill-opacity:1;fill-rule:nonzero;stroke:none"
           d="m 16052.8,4725.73 c 4.3,2.71 243.5,129.74 243.5,129.74 l 3.7,-14.93 -237.7,-130.61 -9.5,15.8" /></g><g
         transform="scale(1.46165)"
         id="g618"><path
           id="path620"
           style="fill:#fe9f73;fill-opacity:1;fill-rule:nonzero;stroke:none"
           d="m 14803.2,4553.14 63.7,99 v 0 c 35,56.65 91.7,131.01 150.6,137.58 96.4,10.81 683.2,34.89 869.4,57.82 l -12.4,22.37 c 2.1,-0.48 152.2,25.52 152.2,25.52 l 96.6,45.83 86.9,37.56 c 23.9,-93.45 89.8,-247.05 22.3,-354.05 -124.8,-197.72 -1079.2,-100.36 -1163.8,-74.5 l -78,-84.43 -15.9,-24.49 c -7.5,-11.56 -23,-14.85 -34.6,-7.32 -11.6,7.52 -14.9,23.05 -7.4,34.62 l -6.6,-10.26 c -7.5,-11.57 -23,-14.85 -34.6,-7.33 -11.6,7.53 -14.9,23.06 -7.3,34.62 -7.6,-11.56 -23.1,-14.84 -34.6,-7.32 -11.6,7.53 -14.9,22.99 -7.4,34.62 l 6.7,10.19 c -7.6,-11.56 -23,-14.84 -34.6,-7.32 l -1.4,0.96 -0.2,0.28 -0.7,0.48 -0.1,0.06 v 0.07 c -1.6,1.3 -2.9,2.74 -4.1,4.31 -13.6,16.49 -4.7,31.13 -4.7,31.13" /></g><g
         transform="scale(1.45811)"
         id="g622"><path
           id="path624"
           style="fill:#21111d;fill-opacity:1;fill-rule:nonzero;stroke:none"
           d="m 15909.9,4874.05 3.6,0.07 c 190.1,4.45 381.1,150.53 383,152.04 l 3.5,2.68 -120.5,267.06 -10.3,-4.67 116.9,-258.83 c -26.7,-19.68 -198.2,-141.27 -369.2,-146.9 l -51.8,105.28 -10.1,-5.01 54.9,-111.72" /></g><g
         transform="scale(1.43107)"
         id="g626"><path
           id="path628"
           style="fill:#f07162;fill-opacity:1;fill-rule:nonzero;stroke:none"
           d="m 16294.8,4857.35 c 1.1,-0.21 2.3,0 3.2,0.77 1.7,1.26 2,3.71 0.7,5.38 l -69.8,89.8 c -1.3,1.67 -3.7,1.95 -5.3,0.69 -1.7,-1.32 -2,-3.7 -0.7,-5.38 l 69.8,-89.86 c 0.5,-0.7 1.3,-1.19 2.1,-1.4" /></g><g
         transform="scale(1.33902)"
         id="g630"><path
           id="path632"
           style="fill:#f07162;fill-opacity:1;fill-rule:nonzero;stroke:none"
           d="m 16196.9,4921.79 c 1.5,-0.37 3.3,0.22 4.2,1.57 l 97.6,133.98 c 1.3,1.79 0.9,4.4 -0.9,5.67 -1.8,1.35 -4.4,0.97 -5.7,-0.89 l -97.6,-133.98 c -1.4,-1.79 -0.9,-4.33 0.9,-5.68 l 1.5,-0.67" /></g><g
         transform="scale(1.34218)"
         id="g634"><path
           id="path636"
           style="fill:#f07162;fill-opacity:1;fill-rule:nonzero;stroke:none"
           d="m 16201.5,4871.09 c 1.6,-0.37 3.4,0.22 4.3,1.71 l 92.9,137.77 c 1.3,1.86 0.8,4.39 -1.1,5.66 -1.8,1.26 -4.4,0.74 -5.6,-1.12 l -93,-137.76 c -1.2,-1.86 -0.7,-4.4 1.2,-5.66 l 1.3,-0.6" /></g><g
         transform="scale(1.34515)"
         id="g638"><path
           id="path640"
           style="fill:#f07162;fill-opacity:1;fill-rule:nonzero;stroke:none"
           d="m 16217.3,4835.45 c 1.7,-0.36 3.4,0.3 4.3,1.71 l 77.1,116.57 c 1.3,1.86 0.8,4.39 -1.1,5.65 -1.9,1.27 -4.4,0.75 -5.6,-1.11 l -77.2,-116.57 c -1.2,-1.86 -0.7,-4.39 1.2,-5.65 l 1.3,-0.6" /></g><g
         transform="scale(1.41945)"
         id="g642"><path
           id="path644"
           style="fill:#21111d;fill-opacity:1;fill-rule:nonzero;stroke:none"
           d="m 15775.9,4021.54 c -293.5,0 -470.8,19.73 -473.5,20.01 l 1.4,11.49 c 3.9,-0.43 401.9,-44.67 995.4,0.07 l 0.8,-11.56 c -199.2,-15 -376.3,-20.01 -524.1,-20.01" /></g><g
         transform="scale(1.33899)"
         id="g646"><path
           id="path648"
           style="fill:#21111d;fill-opacity:1;fill-rule:nonzero;stroke:none"
           d="m 16283.5,5387.63 -12.3,0.45 16.6,521.13 12.2,-0.37 -16.5,-521.21" /></g><g
         transform="scale(1.34671)"
         id="g650"><path
           id="path652"
           style="fill:#4cb7d8;fill-opacity:1;fill-rule:nonzero;stroke:none"
           d="m 15247.7,5647.02 110.1,-789.41 942.2,-77.97 -32.1,858.91 -1020.2,8.47" /></g><g
         transform="scale(1.424)"
         id="g654"><path
           id="path656"
           style="fill:#21111d;fill-opacity:1;fill-rule:nonzero;stroke:none"
           d="m 16289.5,4988.55 -229.2,527.39 10.6,4.56 229.1,-527.31 -10.5,-4.64" /></g><g
         transform="scale(1.42104)"
         id="g658"><path
           id="path660"
           style="fill:#21111d;fill-opacity:1;fill-rule:nonzero;stroke:none"
           d="m 16288.5,4980.17 -25.5,158.4 11.4,1.83 25.6,-158.4 -11.5,-1.83" /></g><g
         transform="scale(1.36758)"
         id="g662"><path
           id="path664"
           style="fill:#f07162;fill-opacity:1;fill-rule:nonzero;stroke:none"
           d="m 16297.8,6440.93 c 0.8,0 1.6,0.51 1.9,1.39 0.3,1.02 -0.2,2.12 -1.3,2.48 l -40.2,13.31 12.8,94.47 c 0.1,1.1 -0.7,2.12 -1.8,2.27 -1.1,0.15 -2.1,-0.66 -2.3,-1.68 l -13,-97.84 43.2,-14.33 0.7,-0.07" /></g><g
         transform="scale(1.37001)"
         id="g666"><path
           id="path668"
           style="fill:#fbfdfc;fill-opacity:1;fill-rule:nonzero;stroke:none"
           d="m 16300,6390.56 c -1.2,0.22 -79.2,2.11 -79.2,2.11 0,0 9.8,-32.26 38.8,-32.99 28.9,-0.8 40.4,30.88 40.4,30.88" /></g><g
         transform="scale(1.30342)"
         id="g670"><path
           id="path672"
           style="fill:#e2f2f1;fill-opacity:1;fill-rule:nonzero;stroke:none"
           d="m 16300,5452.51 c 0,-20.48 -16.7,-37.13 -37.1,-37.13 -20.5,0 -37.1,16.65 -37.1,37.13 0,20.41 16.6,37.06 37.1,37.06 20.4,0 37.1,-16.65 37.1,-37.06" /></g><g
         transform="scale(1.01718)"
         id="g674"><path
           id="path676"
           style="fill:#fecc86;fill-opacity:1;fill-rule:nonzero;stroke:none"
           d="m 13085.2,16073.9 c 0,-124.9 -101.2,-226.1 -226.1,-226.1 -124.8,0 -226.1,101.2 -226.1,226.1 0,124.9 101.3,226.1 226.1,226.1 124.9,0 226.1,-101.2 226.1,-226.1" /></g><path
         id="path678"
         style="fill:#fecc86;fill-opacity:1;fill-rule:nonzero;stroke:none"
         d="m 13760,15810 c 0,-55.2 -44.8,-100 -100,-100 -55.2,0 -100,44.8 -100,100 0,55.2 44.8,100 100,100 55.2,0 100,-44.8 100,-100" /><path
         id="path680"
         style="fill:#fecc86;fill-opacity:1;fill-rule:nonzero;stroke:none"
         d="m 7380,13270 c 0,-127 -102.97,-230 -230,-230 -127.03,0 -230,103 -230,230 0,127 102.97,230 230,230 127.03,0 230,-103 230,-230" /><path
         id="path682"
         style="fill:#fecc86;fill-opacity:1;fill-rule:nonzero;stroke:none"
         d="m 5420,10070 c 0,-127 -102.97,-230 -230,-230 -127.03,0 -230,103 -230,230 0,127 102.97,230 230,230 127.03,0 230,-103 230,-230" /><path
         id="path684"
         style="fill:#fecc86;fill-opacity:1;fill-rule:nonzero;stroke:none"
         d="m 6710,12400 c 0,-55.2 -44.77,-100 -100,-100 -55.23,0 -100,44.8 -100,100 0,55.2 44.77,100 100,100 55.23,0 100,-44.8 100,-100" /><path
         id="path686"
         style="fill:#fecc86;fill-opacity:1;fill-rule:nonzero;stroke:none"
         d="m 3710,10640 c 0,-55.2 -44.77,-100 -100,-100 -55.23,0 -100,44.8 -100,100 0,55.2 44.77,100 100,100 55.23,0 100,-44.8 100,-100" /><path
         id="path688"
         style="fill:#fecc86;fill-opacity:1;fill-rule:nonzero;stroke:none"
         d="m 15080,12750 c 0,-127 -103,-230 -230,-230 -127,0 -230,103 -230,230 0,127 103,230 230,230 127,0 230,-103 230,-230" /><path
         id="path690"
         style="fill:#fecc86;fill-opacity:1;fill-rule:nonzero;stroke:none"
         d="m 14070,12370 c 0,-55.2 -44.8,-100 -100,-100 -55.2,0 -100,44.8 -100,100 0,55.2 44.8,100 100,100 55.2,0 100,-44.8 100,-100" /><path
         id="path692"
         style="fill:#fecc86;fill-opacity:1;fill-rule:nonzero;stroke:none"
         d="m 15820,11660 c 0,-99.4 -80.6,-180 -180,-180 -99.4,0 -180,80.6 -180,180 0,99.4 80.6,180 180,180 99.4,0 180,-80.6 180,-180" /><g
         transform="scale(1.52699)"
         id="g694"><path
           id="path696"
           style="fill:#fecc86;fill-opacity:1;fill-rule:nonzero;stroke:none"
           d="m 16300,6208.28 c 0,-83.17 -67.5,-150.63 -150.6,-150.63 -83.2,0 -150.6,67.46 -150.6,150.63 0,83.17 67.4,150.62 150.6,150.62 83.1,0 150.6,-67.45 150.6,-150.62" /></g><g
         transform="scale(1.25399)"
         id="g698"><path
           id="path700"
           style="fill:#fecc86;fill-opacity:1;fill-rule:nonzero;stroke:none"
           d="m 16300,6650.78 c 0,-101.27 -82.1,-183.41 -183.4,-183.41 -101.3,0 -183.4,82.14 -183.4,183.41 0,101.28 82.1,183.42 183.4,183.42 101.3,0 183.4,-82.14 183.4,-183.42" /></g><g
         transform="scale(1.46503)"
         id="g702"><path
           id="path704"
           style="fill:#fecc86;fill-opacity:1;fill-rule:nonzero;stroke:none"
           d="m 16300,6211.47 c 0,-37.67 -30.6,-68.25 -68.3,-68.25 -37.6,0 -68.2,30.58 -68.2,68.25 0,37.68 30.6,68.26 68.2,68.26 37.7,0 68.3,-30.58 68.3,-68.26" /></g><g
         transform="scale(1.28098)"
         id="g706"><path
           id="path708"
           style="fill:#fecc86;fill-opacity:1;fill-rule:nonzero;stroke:none"
           d="m 16300,7306.9 c 0,-43.09 -35,-78.07 -78.1,-78.07 -43.1,0 -78,34.98 -78,78.07 0,43.09 34.9,78.06 78,78.06 43.1,0 78.1,-34.97 78.1,-78.06" /></g><g
         transform="scale(1.57239)"
         id="g710"><path
           id="path712"
           style="fill:#fecc86;fill-opacity:1;fill-rule:nonzero;stroke:none"
           d="m 16300,5335.82 c 0,-63.22 -51.3,-114.48 -114.5,-114.48 -63.2,0 -114.4,51.26 -114.4,114.48 0,63.21 51.2,114.47 114.4,114.47 63.2,0 114.5,-51.26 114.5,-114.47" /></g><g
         transform="scale(1.08528)"
         id="g714"><path
           id="path716"
           style="fill:#ffffff;fill-opacity:1;fill-rule:nonzero;stroke:none"
           d="M 13047.4,9370.89 V 5003.33 H 16300 v 3648.85 l -700.3,718.71 h -2552.3" /></g><g
         transform="scale(1.08528)"
         id="g718"><path
           id="path720"
           style="fill:#aac9f8;fill-opacity:1;fill-rule:nonzero;stroke:none"
           d="m 16300,8650.79 -696.2,720.1 v -720.1 h 696.2" /></g><g
         transform="scale(1.02025)"
         id="g722"><path
           id="path724"
           style="fill:#aac9f8;fill-opacity:1;fill-rule:nonzero;stroke:none"
           d="m 16260.8,9389.9 h -1509.4 c -21.7,0 -39.3,17.54 -39.3,39.2 0,21.67 17.6,39.21 39.3,39.21 h 1509.4 c 21.7,0 39.2,-17.54 39.2,-39.21 0,-21.66 -17.5,-39.2 -39.2,-39.2" /></g><g
         transform="scale(1.03313)"
         id="g726"><path
           id="path728"
           style="fill:#aac9f8;fill-opacity:1;fill-rule:nonzero;stroke:none"
           d="m 16261.3,8972.74 h -1897.2 c -21.4,0 -38.7,17.33 -38.7,38.72 0,21.39 17.3,38.72 38.7,38.72 h 1897.2 c 21.4,0 38.7,-17.33 38.7,-38.72 0,-21.39 -17.3,-38.72 -38.7,-38.72" /></g><g
         transform="scale(1.06503)"
         id="g730"><path
           id="path732"
           style="fill:#aac9f8;fill-opacity:1;fill-rule:nonzero;stroke:none"
           d="m 16262.4,8009.16 h -2666.5 c -20.8,0 -37.6,16.81 -37.6,37.56 0,20.75 16.8,37.55 37.6,37.55 h 2666.5 c 20.8,0 37.6,-16.8 37.6,-37.55 0,-20.75 -16.8,-37.56 -37.6,-37.56" /></g><g
         transform="scale(1.06503)"
         id="g734"><path
           id="path736"
           style="fill:#aac9f8;fill-opacity:1;fill-rule:nonzero;stroke:none"
           d="m 16262.4,7680.53 h -2666.5 c -20.8,0 -37.6,16.81 -37.6,37.56 0,20.75 16.8,37.56 37.6,37.56 h 2666.5 c 20.8,0 37.6,-16.81 37.6,-37.56 0,-20.75 -16.8,-37.56 -37.6,-37.56" /></g><g
         transform="scale(1.06503)"
         id="g738"><path
           id="path740"
           style="fill:#aac9f8;fill-opacity:1;fill-rule:nonzero;stroke:none"
           d="m 16262.4,7351.9 h -2666.5 c -20.8,0 -37.6,16.81 -37.6,37.56 0,20.75 16.8,37.56 37.6,37.56 h 2666.5 c 20.8,0 37.6,-16.81 37.6,-37.56 0,-20.75 -16.8,-37.56 -37.6,-37.56" /></g><g
         transform="scale(1.06503)"
         id="g742"><path
           id="path744"
           style="fill:#aac9f8;fill-opacity:1;fill-rule:nonzero;stroke:none"
           d="m 16262.4,6694.64 h -2666.5 c -20.8,0 -37.6,16.81 -37.6,37.56 0,20.75 16.8,37.56 37.6,37.56 h 2666.5 c 20.8,0 37.6,-16.81 37.6,-37.56 0,-20.75 -16.8,-37.56 -37.6,-37.56" /></g><g
         transform="scale(1.06503)"
         id="g746"><path
           id="path748"
           style="fill:#aac9f8;fill-opacity:1;fill-rule:nonzero;stroke:none"
           d="m 16262.4,6366.01 h -2666.5 c -20.8,0 -37.6,16.81 -37.6,37.56 0,20.75 16.8,37.56 37.6,37.56 h 2666.5 c 20.8,0 37.6,-16.81 37.6,-37.56 0,-20.75 -16.8,-37.56 -37.6,-37.56" /></g><g
         transform="scale(1.06503)"
         id="g750"><path
           id="path752"
           style="fill:#aac9f8;fill-opacity:1;fill-rule:nonzero;stroke:none"
           d="m 16262.4,5520.97 h -2666.5 c -20.8,0 -37.6,16.81 -37.6,37.56 0,20.75 16.8,37.55 37.6,37.55 h 2666.5 c 20.8,0 37.6,-16.8 37.6,-37.55 0,-20.75 -16.8,-37.56 -37.6,-37.56" /></g><path
         id="path754"
         style="fill:#21111d;fill-opacity:1;fill-rule:nonzero;stroke:none"
         d="m 10643,1625.6 10.7,-15.6 6.5,-14.8 h 41.6 L 6914.74,7029.5 c -4.79,6.9 -14.25,8.6 -21.12,3.8 -6.88,-4.8 -8.57,-14.2 -3.78,-21.1 L 10643.6,1625.6 h -0.6" /><g
         transform="scale(1.63681)"
         id="g756"><path
           id="path758"
           style="fill:#21111d;fill-opacity:1;fill-rule:nonzero;stroke:none"
           d="M 16300,983.621 H 378.786 V 934.745 H 16300 v 48.876" /></g></g></g></svg>